<mxfile host="app.diagrams.net" agent="Mozilla/5.0 (Windows NT 10.0; Win64; x64) AppleWebKit/537.36 (KHTML, like Gecko) Chrome/130.0.0.0 Safari/537.36" version="24.8.4" pages="2">
  <diagram name="Page-1" id="AyYo4sgzFAqUoDY3u-qt">
    <mxGraphModel dx="1526" dy="612" grid="1" gridSize="10" guides="1" tooltips="1" connect="1" arrows="1" fold="1" page="1" pageScale="1" pageWidth="850" pageHeight="1100" math="0" shadow="0">
      <root>
        <mxCell id="0" />
        <mxCell id="1" parent="0" />
        <mxCell id="bXgrke7fS9s8xpsyp-bB-1" value="" style="rounded=0;whiteSpace=wrap;html=1;" vertex="1" parent="1">
          <mxGeometry width="1120" height="520" as="geometry" />
        </mxCell>
        <mxCell id="waE4sCZhkBapJmtRks2j-3" value="" style="shape=cylinder3;whiteSpace=wrap;html=1;boundedLbl=1;backgroundOutline=1;size=15;strokeColor=#00A1D9;" parent="1" vertex="1">
          <mxGeometry x="40" y="240" width="80" height="100" as="geometry" />
        </mxCell>
        <mxCell id="waE4sCZhkBapJmtRks2j-5" value="" style="shape=cylinder3;whiteSpace=wrap;html=1;boundedLbl=1;backgroundOutline=1;size=15;strokeColor=#00A1D9;" parent="1" vertex="1">
          <mxGeometry x="70" y="240" width="80" height="100" as="geometry" />
        </mxCell>
        <mxCell id="waE4sCZhkBapJmtRks2j-4" value="" style="shape=cylinder3;whiteSpace=wrap;html=1;boundedLbl=1;backgroundOutline=1;size=15;strokeColor=#00A1D9;" parent="1" vertex="1">
          <mxGeometry x="50" y="250" width="80" height="100" as="geometry" />
        </mxCell>
        <mxCell id="waE4sCZhkBapJmtRks2j-10" value="&lt;div&gt;&lt;b&gt;&lt;u&gt;Features:&lt;/u&gt;&lt;/b&gt;&lt;/div&gt;Product Category&lt;div&gt;Product Subcategory&lt;/div&gt;&lt;div&gt;Brand&lt;/div&gt;&lt;div&gt;&lt;div&gt;RRP&lt;/div&gt;&lt;div&gt;Inventory Levels&lt;/div&gt;&lt;div&gt;Price&lt;/div&gt;&lt;div&gt;&lt;br&gt;&lt;/div&gt;&lt;div&gt;Historic Data&lt;/div&gt;&lt;div&gt;&lt;span style=&quot;white-space: pre;&quot;&gt;&#x9;&lt;/span&gt;- similar item sales&lt;br&gt;&lt;/div&gt;&lt;div&gt;&lt;span style=&quot;white-space: pre;&quot;&gt;&#x9;&lt;/span&gt;- popularity of brand&lt;br&gt;&lt;/div&gt;&lt;div&gt;&lt;span style=&quot;white-space: pre;&quot;&gt;&#x9;&lt;/span&gt;- popularity to loyalty&lt;br&gt;&lt;/div&gt;&lt;div&gt;Seasonal Relevance&lt;/div&gt;&lt;div&gt;&lt;br&gt;&lt;/div&gt;&lt;div&gt;&lt;b&gt;&lt;u&gt;Optimizing Metrics:&lt;/u&gt;&lt;/b&gt;&lt;/div&gt;&lt;div&gt;Sales likelihood&lt;/div&gt;&lt;div&gt;Revenue Potential&lt;/div&gt;&lt;div&gt;Customer Engagement?&lt;/div&gt;&lt;/div&gt;" style="rounded=0;whiteSpace=wrap;html=1;align=left;" parent="1" vertex="1">
          <mxGeometry x="200" y="100" width="150" height="260" as="geometry" />
        </mxCell>
        <mxCell id="waE4sCZhkBapJmtRks2j-11" value="&lt;font style=&quot;font-size: 8px;&quot;&gt;Sales Model&lt;/font&gt;" style="sketch=0;outlineConnect=0;fontColor=#232F3E;gradientColor=none;fillColor=#FF3621;strokeColor=#FF3621;dashed=0;verticalLabelPosition=bottom;verticalAlign=top;align=center;html=1;fontSize=12;fontStyle=0;aspect=fixed;pointerEvents=1;shape=mxgraph.aws4.sagemaker_model;" parent="1" vertex="1">
          <mxGeometry x="400.5" y="365" width="44.5" height="44.5" as="geometry" />
        </mxCell>
        <mxCell id="waE4sCZhkBapJmtRks2j-13" value="&lt;font style=&quot;font-size: 8px;&quot;&gt;Revenue Model&lt;/font&gt;" style="sketch=0;outlineConnect=0;fontColor=#232F3E;gradientColor=none;fillColor=#FF3621;strokeColor=#FF3621;dashed=0;verticalLabelPosition=bottom;verticalAlign=top;align=center;html=1;fontSize=12;fontStyle=0;aspect=fixed;pointerEvents=1;shape=mxgraph.aws4.sagemaker_model;" parent="1" vertex="1">
          <mxGeometry x="400.5" y="290.5" width="44.5" height="44.5" as="geometry" />
        </mxCell>
        <mxCell id="waE4sCZhkBapJmtRks2j-14" value="&lt;div style=&quot;&quot;&gt;&lt;span style=&quot;background-color: initial;&quot;&gt;Human In the Loop&lt;/span&gt;&lt;/div&gt;&lt;div style=&quot;&quot;&gt;&lt;br&gt;&lt;/div&gt;&lt;div style=&quot;&quot;&gt;&lt;span style=&quot;background-color: initial;&quot;&gt;&lt;span style=&quot;white-space: pre;&quot;&gt;&#x9;&lt;/span&gt;&lt;span style=&quot;white-space: pre;&quot;&gt;&#x9;&lt;/span&gt;&lt;span style=&quot;white-space: pre;&quot;&gt;&#x9;&lt;span style=&quot;white-space: pre;&quot;&gt;&#x9;&lt;/span&gt;&lt;span style=&quot;white-space: pre;&quot;&gt;&#x9;&lt;/span&gt;&lt;/span&gt;Human&amp;nbsp;&lt;/span&gt;&lt;/div&gt;&lt;div style=&quot;&quot;&gt;&lt;span style=&quot;background-color: initial;&quot;&gt;&lt;span style=&quot;white-space: pre;&quot;&gt;&#x9;&lt;/span&gt;&lt;span style=&quot;white-space: pre;&quot;&gt;&#x9;&lt;/span&gt;&lt;span style=&quot;white-space: pre;&quot;&gt;&#x9;&lt;/span&gt;&lt;span style=&quot;white-space: pre;&quot;&gt;&#x9;&lt;/span&gt;&lt;span style=&quot;white-space: pre;&quot;&gt;&#x9;&lt;/span&gt;Approval&lt;/span&gt;&lt;/div&gt;&lt;div style=&quot;&quot;&gt;&lt;br&gt;&lt;/div&gt;&lt;div style=&quot;&quot;&gt;&lt;br&gt;&lt;/div&gt;&lt;div style=&quot;&quot;&gt;&lt;br&gt;&lt;/div&gt;&lt;div style=&quot;&quot;&gt;&lt;br&gt;&lt;/div&gt;&lt;div style=&quot;&quot;&gt;&lt;br&gt;&lt;/div&gt;&lt;div style=&quot;&quot;&gt;&lt;br&gt;&lt;/div&gt;&lt;div style=&quot;&quot;&gt;&lt;br&gt;&lt;/div&gt;" style="rounded=0;whiteSpace=wrap;html=1;align=center;" parent="1" vertex="1">
          <mxGeometry x="840" y="60" width="250" height="170" as="geometry" />
        </mxCell>
        <mxCell id="waE4sCZhkBapJmtRks2j-15" value="Optimized Metric" style="ellipse;whiteSpace=wrap;html=1;" parent="1" vertex="1">
          <mxGeometry x="480" y="329.5" width="60" height="52.25" as="geometry" />
        </mxCell>
        <mxCell id="waE4sCZhkBapJmtRks2j-17" value="" style="shape=table;startSize=0;container=1;collapsible=0;childLayout=tableLayout;" parent="1" vertex="1">
          <mxGeometry x="590" y="284.5" width="140" height="120" as="geometry" />
        </mxCell>
        <mxCell id="waE4sCZhkBapJmtRks2j-18" value="" style="shape=tableRow;horizontal=0;startSize=0;swimlaneHead=0;swimlaneBody=0;strokeColor=inherit;top=0;left=0;bottom=0;right=0;collapsible=0;dropTarget=0;fillColor=none;points=[[0,0.5],[1,0.5]];portConstraint=eastwest;" parent="waE4sCZhkBapJmtRks2j-17" vertex="1">
          <mxGeometry width="140" height="24" as="geometry" />
        </mxCell>
        <mxCell id="waE4sCZhkBapJmtRks2j-19" value="Products" style="shape=partialRectangle;html=1;whiteSpace=wrap;connectable=0;strokeColor=inherit;overflow=hidden;fillColor=none;top=0;left=0;bottom=0;right=0;pointerEvents=1;" parent="waE4sCZhkBapJmtRks2j-18" vertex="1">
          <mxGeometry width="70" height="24" as="geometry">
            <mxRectangle width="70" height="24" as="alternateBounds" />
          </mxGeometry>
        </mxCell>
        <mxCell id="waE4sCZhkBapJmtRks2j-20" value="Metric" style="shape=partialRectangle;html=1;whiteSpace=wrap;connectable=0;strokeColor=inherit;overflow=hidden;fillColor=none;top=0;left=0;bottom=0;right=0;pointerEvents=1;" parent="waE4sCZhkBapJmtRks2j-18" vertex="1">
          <mxGeometry x="70" width="70" height="24" as="geometry">
            <mxRectangle width="70" height="24" as="alternateBounds" />
          </mxGeometry>
        </mxCell>
        <mxCell id="waE4sCZhkBapJmtRks2j-21" value="" style="shape=tableRow;horizontal=0;startSize=0;swimlaneHead=0;swimlaneBody=0;strokeColor=inherit;top=0;left=0;bottom=0;right=0;collapsible=0;dropTarget=0;fillColor=none;points=[[0,0.5],[1,0.5]];portConstraint=eastwest;" parent="waE4sCZhkBapJmtRks2j-17" vertex="1">
          <mxGeometry y="24" width="140" height="24" as="geometry" />
        </mxCell>
        <mxCell id="waE4sCZhkBapJmtRks2j-22" value="Item 1" style="shape=partialRectangle;html=1;whiteSpace=wrap;connectable=0;strokeColor=inherit;overflow=hidden;fillColor=none;top=0;left=0;bottom=0;right=0;pointerEvents=1;" parent="waE4sCZhkBapJmtRks2j-21" vertex="1">
          <mxGeometry width="70" height="24" as="geometry">
            <mxRectangle width="70" height="24" as="alternateBounds" />
          </mxGeometry>
        </mxCell>
        <mxCell id="waE4sCZhkBapJmtRks2j-23" value="0.999" style="shape=partialRectangle;html=1;whiteSpace=wrap;connectable=0;strokeColor=inherit;overflow=hidden;fillColor=none;top=0;left=0;bottom=0;right=0;pointerEvents=1;" parent="waE4sCZhkBapJmtRks2j-21" vertex="1">
          <mxGeometry x="70" width="70" height="24" as="geometry">
            <mxRectangle width="70" height="24" as="alternateBounds" />
          </mxGeometry>
        </mxCell>
        <mxCell id="waE4sCZhkBapJmtRks2j-24" value="" style="shape=tableRow;horizontal=0;startSize=0;swimlaneHead=0;swimlaneBody=0;strokeColor=inherit;top=0;left=0;bottom=0;right=0;collapsible=0;dropTarget=0;fillColor=none;points=[[0,0.5],[1,0.5]];portConstraint=eastwest;" parent="waE4sCZhkBapJmtRks2j-17" vertex="1">
          <mxGeometry y="48" width="140" height="24" as="geometry" />
        </mxCell>
        <mxCell id="waE4sCZhkBapJmtRks2j-25" value="Item 2" style="shape=partialRectangle;html=1;whiteSpace=wrap;connectable=0;strokeColor=inherit;overflow=hidden;fillColor=none;top=0;left=0;bottom=0;right=0;pointerEvents=1;" parent="waE4sCZhkBapJmtRks2j-24" vertex="1">
          <mxGeometry width="70" height="24" as="geometry">
            <mxRectangle width="70" height="24" as="alternateBounds" />
          </mxGeometry>
        </mxCell>
        <mxCell id="waE4sCZhkBapJmtRks2j-26" value="0.986" style="shape=partialRectangle;html=1;whiteSpace=wrap;connectable=0;strokeColor=inherit;overflow=hidden;fillColor=none;top=0;left=0;bottom=0;right=0;pointerEvents=1;" parent="waE4sCZhkBapJmtRks2j-24" vertex="1">
          <mxGeometry x="70" width="70" height="24" as="geometry">
            <mxRectangle width="70" height="24" as="alternateBounds" />
          </mxGeometry>
        </mxCell>
        <mxCell id="waE4sCZhkBapJmtRks2j-27" value="" style="shape=tableRow;horizontal=0;startSize=0;swimlaneHead=0;swimlaneBody=0;strokeColor=inherit;top=0;left=0;bottom=0;right=0;collapsible=0;dropTarget=0;fillColor=none;points=[[0,0.5],[1,0.5]];portConstraint=eastwest;" parent="waE4sCZhkBapJmtRks2j-17" vertex="1">
          <mxGeometry y="72" width="140" height="24" as="geometry" />
        </mxCell>
        <mxCell id="waE4sCZhkBapJmtRks2j-28" value="..." style="shape=partialRectangle;html=1;whiteSpace=wrap;connectable=0;strokeColor=inherit;overflow=hidden;fillColor=none;top=0;left=0;bottom=0;right=0;pointerEvents=1;" parent="waE4sCZhkBapJmtRks2j-27" vertex="1">
          <mxGeometry width="70" height="24" as="geometry">
            <mxRectangle width="70" height="24" as="alternateBounds" />
          </mxGeometry>
        </mxCell>
        <mxCell id="waE4sCZhkBapJmtRks2j-29" value="..." style="shape=partialRectangle;html=1;whiteSpace=wrap;connectable=0;strokeColor=inherit;overflow=hidden;fillColor=none;top=0;left=0;bottom=0;right=0;pointerEvents=1;" parent="waE4sCZhkBapJmtRks2j-27" vertex="1">
          <mxGeometry x="70" width="70" height="24" as="geometry">
            <mxRectangle width="70" height="24" as="alternateBounds" />
          </mxGeometry>
        </mxCell>
        <mxCell id="waE4sCZhkBapJmtRks2j-30" value="" style="shape=tableRow;horizontal=0;startSize=0;swimlaneHead=0;swimlaneBody=0;strokeColor=inherit;top=0;left=0;bottom=0;right=0;collapsible=0;dropTarget=0;fillColor=none;points=[[0,0.5],[1,0.5]];portConstraint=eastwest;" parent="waE4sCZhkBapJmtRks2j-17" vertex="1">
          <mxGeometry y="96" width="140" height="24" as="geometry" />
        </mxCell>
        <mxCell id="waE4sCZhkBapJmtRks2j-31" value="Item N" style="shape=partialRectangle;html=1;whiteSpace=wrap;connectable=0;strokeColor=inherit;overflow=hidden;fillColor=none;top=0;left=0;bottom=0;right=0;pointerEvents=1;" parent="waE4sCZhkBapJmtRks2j-30" vertex="1">
          <mxGeometry width="70" height="24" as="geometry">
            <mxRectangle width="70" height="24" as="alternateBounds" />
          </mxGeometry>
        </mxCell>
        <mxCell id="waE4sCZhkBapJmtRks2j-32" value="0.056" style="shape=partialRectangle;html=1;whiteSpace=wrap;connectable=0;strokeColor=inherit;overflow=hidden;fillColor=none;top=0;left=0;bottom=0;right=0;pointerEvents=1;" parent="waE4sCZhkBapJmtRks2j-30" vertex="1">
          <mxGeometry x="70" width="70" height="24" as="geometry">
            <mxRectangle width="70" height="24" as="alternateBounds" />
          </mxGeometry>
        </mxCell>
        <mxCell id="waE4sCZhkBapJmtRks2j-34" value="" style="sketch=0;html=1;aspect=fixed;strokeColor=none;shadow=0;align=center;fillColor=#2D9C5E;verticalAlign=top;labelPosition=center;verticalLabelPosition=bottom;shape=mxgraph.gcp2.check" parent="1" vertex="1">
          <mxGeometry x="1010" y="135" width="37.5" height="30" as="geometry" />
        </mxCell>
        <mxCell id="waE4sCZhkBapJmtRks2j-35" value="" style="html=1;verticalLabelPosition=bottom;align=center;labelBackgroundColor=#ffffff;verticalAlign=top;strokeWidth=2;strokeColor=#0080F0;shadow=0;dashed=0;shape=mxgraph.ios7.icons.mail;" parent="1" vertex="1">
          <mxGeometry x="740" y="30" width="80" height="40" as="geometry" />
        </mxCell>
        <mxCell id="waE4sCZhkBapJmtRks2j-36" value="" style="shape=table;startSize=0;container=1;collapsible=0;childLayout=tableLayout;" parent="1" vertex="1">
          <mxGeometry x="410" y="30" width="248.5" height="126" as="geometry" />
        </mxCell>
        <mxCell id="waE4sCZhkBapJmtRks2j-37" value="" style="shape=tableRow;horizontal=0;startSize=0;swimlaneHead=0;swimlaneBody=0;strokeColor=inherit;top=0;left=0;bottom=0;right=0;collapsible=0;dropTarget=0;fillColor=none;points=[[0,0.5],[1,0.5]];portConstraint=eastwest;" parent="waE4sCZhkBapJmtRks2j-36" vertex="1">
          <mxGeometry width="248.5" height="25" as="geometry" />
        </mxCell>
        <mxCell id="waE4sCZhkBapJmtRks2j-38" value="&lt;font style=&quot;font-size: 8px;&quot;&gt;Products&lt;/font&gt;" style="shape=partialRectangle;html=1;whiteSpace=wrap;connectable=0;strokeColor=inherit;overflow=hidden;fillColor=none;top=0;left=0;bottom=0;right=0;pointerEvents=1;" parent="waE4sCZhkBapJmtRks2j-37" vertex="1">
          <mxGeometry width="63" height="25" as="geometry">
            <mxRectangle width="63" height="25" as="alternateBounds" />
          </mxGeometry>
        </mxCell>
        <mxCell id="waE4sCZhkBapJmtRks2j-39" value="&lt;font style=&quot;font-size: 6px;&quot;&gt;Product Page Views&lt;/font&gt;" style="shape=partialRectangle;html=1;whiteSpace=wrap;connectable=0;strokeColor=inherit;overflow=hidden;fillColor=none;top=0;left=0;bottom=0;right=0;pointerEvents=1;" parent="waE4sCZhkBapJmtRks2j-37" vertex="1">
          <mxGeometry x="63" width="60" height="25" as="geometry">
            <mxRectangle width="60" height="25" as="alternateBounds" />
          </mxGeometry>
        </mxCell>
        <mxCell id="waE4sCZhkBapJmtRks2j-40" value="&lt;font style=&quot;font-size: 6px;&quot;&gt;Sales Rate Day 1&lt;/font&gt;" style="shape=partialRectangle;html=1;whiteSpace=wrap;connectable=0;strokeColor=inherit;overflow=hidden;fillColor=none;top=0;left=0;bottom=0;right=0;pointerEvents=1;" parent="waE4sCZhkBapJmtRks2j-37" vertex="1">
          <mxGeometry x="123" width="63" height="25" as="geometry">
            <mxRectangle width="63" height="25" as="alternateBounds" />
          </mxGeometry>
        </mxCell>
        <mxCell id="waE4sCZhkBapJmtRks2j-75" value="&lt;font style=&quot;font-size: 6px;&quot;&gt;Sales Rate Day 2&lt;/font&gt;" style="shape=partialRectangle;html=1;whiteSpace=wrap;connectable=0;strokeColor=inherit;overflow=hidden;fillColor=none;top=0;left=0;bottom=0;right=0;pointerEvents=1;" parent="waE4sCZhkBapJmtRks2j-37" vertex="1">
          <mxGeometry x="186" width="63" height="25" as="geometry">
            <mxRectangle width="63" height="25" as="alternateBounds" />
          </mxGeometry>
        </mxCell>
        <mxCell id="waE4sCZhkBapJmtRks2j-41" value="" style="shape=tableRow;horizontal=0;startSize=0;swimlaneHead=0;swimlaneBody=0;strokeColor=inherit;top=0;left=0;bottom=0;right=0;collapsible=0;dropTarget=0;fillColor=none;points=[[0,0.5],[1,0.5]];portConstraint=eastwest;" parent="waE4sCZhkBapJmtRks2j-36" vertex="1">
          <mxGeometry y="25" width="248.5" height="25" as="geometry" />
        </mxCell>
        <mxCell id="waE4sCZhkBapJmtRks2j-42" value="&lt;font style=&quot;font-size: 8px;&quot;&gt;Item 1&lt;/font&gt;" style="shape=partialRectangle;html=1;whiteSpace=wrap;connectable=0;strokeColor=inherit;overflow=hidden;fillColor=none;top=0;left=0;bottom=0;right=0;pointerEvents=1;" parent="waE4sCZhkBapJmtRks2j-41" vertex="1">
          <mxGeometry width="63" height="25" as="geometry">
            <mxRectangle width="63" height="25" as="alternateBounds" />
          </mxGeometry>
        </mxCell>
        <mxCell id="waE4sCZhkBapJmtRks2j-43" value="&lt;font style=&quot;font-size: 8px;&quot;&gt;0.456&lt;/font&gt;" style="shape=partialRectangle;html=1;whiteSpace=wrap;connectable=0;strokeColor=inherit;overflow=hidden;fillColor=none;top=0;left=0;bottom=0;right=0;pointerEvents=1;" parent="waE4sCZhkBapJmtRks2j-41" vertex="1">
          <mxGeometry x="63" width="60" height="25" as="geometry">
            <mxRectangle width="60" height="25" as="alternateBounds" />
          </mxGeometry>
        </mxCell>
        <mxCell id="waE4sCZhkBapJmtRks2j-44" value="&lt;font style=&quot;font-size: 8px;&quot;&gt;0.322&lt;/font&gt;" style="shape=partialRectangle;html=1;whiteSpace=wrap;connectable=0;strokeColor=inherit;overflow=hidden;fillColor=none;top=0;left=0;bottom=0;right=0;pointerEvents=1;" parent="waE4sCZhkBapJmtRks2j-41" vertex="1">
          <mxGeometry x="123" width="63" height="25" as="geometry">
            <mxRectangle width="63" height="25" as="alternateBounds" />
          </mxGeometry>
        </mxCell>
        <mxCell id="waE4sCZhkBapJmtRks2j-76" value="&lt;font style=&quot;font-size: 8px;&quot;&gt;0.454&lt;/font&gt;" style="shape=partialRectangle;html=1;whiteSpace=wrap;connectable=0;strokeColor=inherit;overflow=hidden;fillColor=none;top=0;left=0;bottom=0;right=0;pointerEvents=1;" parent="waE4sCZhkBapJmtRks2j-41" vertex="1">
          <mxGeometry x="186" width="63" height="25" as="geometry">
            <mxRectangle width="63" height="25" as="alternateBounds" />
          </mxGeometry>
        </mxCell>
        <mxCell id="waE4sCZhkBapJmtRks2j-45" value="" style="shape=tableRow;horizontal=0;startSize=0;swimlaneHead=0;swimlaneBody=0;strokeColor=inherit;top=0;left=0;bottom=0;right=0;collapsible=0;dropTarget=0;fillColor=none;points=[[0,0.5],[1,0.5]];portConstraint=eastwest;" parent="waE4sCZhkBapJmtRks2j-36" vertex="1">
          <mxGeometry y="50" width="248.5" height="26" as="geometry" />
        </mxCell>
        <mxCell id="waE4sCZhkBapJmtRks2j-46" value="&lt;font style=&quot;font-size: 8px;&quot;&gt;Item 2&lt;/font&gt;" style="shape=partialRectangle;html=1;whiteSpace=wrap;connectable=0;strokeColor=inherit;overflow=hidden;fillColor=none;top=0;left=0;bottom=0;right=0;pointerEvents=1;" parent="waE4sCZhkBapJmtRks2j-45" vertex="1">
          <mxGeometry width="63" height="26" as="geometry">
            <mxRectangle width="63" height="26" as="alternateBounds" />
          </mxGeometry>
        </mxCell>
        <mxCell id="waE4sCZhkBapJmtRks2j-47" value="&lt;font style=&quot;font-size: 8px;&quot;&gt;0.453&lt;/font&gt;" style="shape=partialRectangle;html=1;whiteSpace=wrap;connectable=0;strokeColor=inherit;overflow=hidden;fillColor=none;top=0;left=0;bottom=0;right=0;pointerEvents=1;" parent="waE4sCZhkBapJmtRks2j-45" vertex="1">
          <mxGeometry x="63" width="60" height="26" as="geometry">
            <mxRectangle width="60" height="26" as="alternateBounds" />
          </mxGeometry>
        </mxCell>
        <mxCell id="waE4sCZhkBapJmtRks2j-48" value="&lt;font style=&quot;font-size: 8px;&quot;&gt;0.015&lt;/font&gt;" style="shape=partialRectangle;html=1;whiteSpace=wrap;connectable=0;strokeColor=inherit;overflow=hidden;fillColor=none;top=0;left=0;bottom=0;right=0;pointerEvents=1;" parent="waE4sCZhkBapJmtRks2j-45" vertex="1">
          <mxGeometry x="123" width="63" height="26" as="geometry">
            <mxRectangle width="63" height="26" as="alternateBounds" />
          </mxGeometry>
        </mxCell>
        <mxCell id="waE4sCZhkBapJmtRks2j-77" value="&lt;font style=&quot;font-size: 8px;&quot;&gt;0.133&lt;/font&gt;" style="shape=partialRectangle;html=1;whiteSpace=wrap;connectable=0;strokeColor=inherit;overflow=hidden;fillColor=none;top=0;left=0;bottom=0;right=0;pointerEvents=1;" parent="waE4sCZhkBapJmtRks2j-45" vertex="1">
          <mxGeometry x="186" width="63" height="26" as="geometry">
            <mxRectangle width="63" height="26" as="alternateBounds" />
          </mxGeometry>
        </mxCell>
        <mxCell id="waE4sCZhkBapJmtRks2j-49" value="" style="shape=tableRow;horizontal=0;startSize=0;swimlaneHead=0;swimlaneBody=0;strokeColor=inherit;top=0;left=0;bottom=0;right=0;collapsible=0;dropTarget=0;fillColor=none;points=[[0,0.5],[1,0.5]];portConstraint=eastwest;" parent="waE4sCZhkBapJmtRks2j-36" vertex="1">
          <mxGeometry y="76" width="248.5" height="25" as="geometry" />
        </mxCell>
        <mxCell id="waE4sCZhkBapJmtRks2j-50" value="..." style="shape=partialRectangle;html=1;whiteSpace=wrap;connectable=0;strokeColor=inherit;overflow=hidden;fillColor=none;top=0;left=0;bottom=0;right=0;pointerEvents=1;" parent="waE4sCZhkBapJmtRks2j-49" vertex="1">
          <mxGeometry width="63" height="25" as="geometry">
            <mxRectangle width="63" height="25" as="alternateBounds" />
          </mxGeometry>
        </mxCell>
        <mxCell id="waE4sCZhkBapJmtRks2j-51" value="..." style="shape=partialRectangle;html=1;whiteSpace=wrap;connectable=0;strokeColor=inherit;overflow=hidden;fillColor=none;top=0;left=0;bottom=0;right=0;pointerEvents=1;" parent="waE4sCZhkBapJmtRks2j-49" vertex="1">
          <mxGeometry x="63" width="60" height="25" as="geometry">
            <mxRectangle width="60" height="25" as="alternateBounds" />
          </mxGeometry>
        </mxCell>
        <mxCell id="waE4sCZhkBapJmtRks2j-52" value="..." style="shape=partialRectangle;html=1;whiteSpace=wrap;connectable=0;strokeColor=inherit;overflow=hidden;fillColor=none;top=0;left=0;bottom=0;right=0;pointerEvents=1;" parent="waE4sCZhkBapJmtRks2j-49" vertex="1">
          <mxGeometry x="123" width="63" height="25" as="geometry">
            <mxRectangle width="63" height="25" as="alternateBounds" />
          </mxGeometry>
        </mxCell>
        <mxCell id="waE4sCZhkBapJmtRks2j-78" value="..." style="shape=partialRectangle;html=1;whiteSpace=wrap;connectable=0;strokeColor=inherit;overflow=hidden;fillColor=none;top=0;left=0;bottom=0;right=0;pointerEvents=1;" parent="waE4sCZhkBapJmtRks2j-49" vertex="1">
          <mxGeometry x="186" width="63" height="25" as="geometry">
            <mxRectangle width="63" height="25" as="alternateBounds" />
          </mxGeometry>
        </mxCell>
        <mxCell id="waE4sCZhkBapJmtRks2j-53" value="" style="shape=tableRow;horizontal=0;startSize=0;swimlaneHead=0;swimlaneBody=0;strokeColor=inherit;top=0;left=0;bottom=0;right=0;collapsible=0;dropTarget=0;fillColor=none;points=[[0,0.5],[1,0.5]];portConstraint=eastwest;" parent="waE4sCZhkBapJmtRks2j-36" vertex="1">
          <mxGeometry y="101" width="248.5" height="25" as="geometry" />
        </mxCell>
        <mxCell id="waE4sCZhkBapJmtRks2j-54" value="&lt;font style=&quot;font-size: 8px;&quot;&gt;Item N&lt;/font&gt;" style="shape=partialRectangle;html=1;whiteSpace=wrap;connectable=0;strokeColor=inherit;overflow=hidden;fillColor=none;top=0;left=0;bottom=0;right=0;pointerEvents=1;" parent="waE4sCZhkBapJmtRks2j-53" vertex="1">
          <mxGeometry width="63" height="25" as="geometry">
            <mxRectangle width="63" height="25" as="alternateBounds" />
          </mxGeometry>
        </mxCell>
        <mxCell id="waE4sCZhkBapJmtRks2j-55" value="&lt;font style=&quot;font-size: 8px;&quot;&gt;0.876&lt;/font&gt;" style="shape=partialRectangle;html=1;whiteSpace=wrap;connectable=0;strokeColor=inherit;overflow=hidden;fillColor=none;top=0;left=0;bottom=0;right=0;pointerEvents=1;" parent="waE4sCZhkBapJmtRks2j-53" vertex="1">
          <mxGeometry x="63" width="60" height="25" as="geometry">
            <mxRectangle width="60" height="25" as="alternateBounds" />
          </mxGeometry>
        </mxCell>
        <mxCell id="waE4sCZhkBapJmtRks2j-56" value="&lt;font style=&quot;font-size: 8px;&quot;&gt;0.532&lt;/font&gt;" style="shape=partialRectangle;html=1;whiteSpace=wrap;connectable=0;strokeColor=inherit;overflow=hidden;fillColor=none;top=0;left=0;bottom=0;right=0;pointerEvents=1;" parent="waE4sCZhkBapJmtRks2j-53" vertex="1">
          <mxGeometry x="123" width="63" height="25" as="geometry">
            <mxRectangle width="63" height="25" as="alternateBounds" />
          </mxGeometry>
        </mxCell>
        <mxCell id="waE4sCZhkBapJmtRks2j-79" value="&lt;font style=&quot;font-size: 8px;&quot;&gt;0.435&lt;/font&gt;" style="shape=partialRectangle;html=1;whiteSpace=wrap;connectable=0;strokeColor=inherit;overflow=hidden;fillColor=none;top=0;left=0;bottom=0;right=0;pointerEvents=1;" parent="waE4sCZhkBapJmtRks2j-53" vertex="1">
          <mxGeometry x="186" width="63" height="25" as="geometry">
            <mxRectangle width="63" height="25" as="alternateBounds" />
          </mxGeometry>
        </mxCell>
        <mxCell id="waE4sCZhkBapJmtRks2j-57" value="" style="endArrow=classic;html=1;rounded=0;" parent="1" edge="1">
          <mxGeometry width="50" height="50" relative="1" as="geometry">
            <mxPoint x="160" y="299.90999999999997" as="sourcePoint" />
            <mxPoint x="190" y="299.65999999999997" as="targetPoint" />
          </mxGeometry>
        </mxCell>
        <mxCell id="waE4sCZhkBapJmtRks2j-58" value="" style="endArrow=classic;html=1;rounded=0;" parent="1" edge="1">
          <mxGeometry width="50" height="50" relative="1" as="geometry">
            <mxPoint x="360" y="337.65999999999997" as="sourcePoint" />
            <mxPoint x="390" y="337.40999999999997" as="targetPoint" />
          </mxGeometry>
        </mxCell>
        <mxCell id="waE4sCZhkBapJmtRks2j-59" value="" style="endArrow=classic;html=1;rounded=0;" parent="1" edge="1">
          <mxGeometry width="50" height="50" relative="1" as="geometry">
            <mxPoint x="360" y="380.25" as="sourcePoint" />
            <mxPoint x="390" y="380" as="targetPoint" />
          </mxGeometry>
        </mxCell>
        <mxCell id="waE4sCZhkBapJmtRks2j-60" value="" style="endArrow=classic;html=1;rounded=0;" parent="1" edge="1">
          <mxGeometry width="50" height="50" relative="1" as="geometry">
            <mxPoint x="440" y="359.56" as="sourcePoint" />
            <mxPoint x="470" y="359.31" as="targetPoint" />
          </mxGeometry>
        </mxCell>
        <mxCell id="waE4sCZhkBapJmtRks2j-61" value="" style="endArrow=classic;html=1;rounded=0;" parent="1" edge="1">
          <mxGeometry width="50" height="50" relative="1" as="geometry">
            <mxPoint x="550" y="359.56" as="sourcePoint" />
            <mxPoint x="580" y="359.31" as="targetPoint" />
          </mxGeometry>
        </mxCell>
        <mxCell id="waE4sCZhkBapJmtRks2j-63" value="" style="endArrow=classic;html=1;rounded=0;" parent="1" edge="1">
          <mxGeometry width="50" height="50" relative="1" as="geometry">
            <mxPoint x="800" y="108" as="sourcePoint" />
            <mxPoint x="800" y="78" as="targetPoint" />
          </mxGeometry>
        </mxCell>
        <mxCell id="waE4sCZhkBapJmtRks2j-64" value="" style="endArrow=classic;html=1;rounded=0;" parent="1" edge="1">
          <mxGeometry width="50" height="50" relative="1" as="geometry">
            <mxPoint x="710" y="49.66" as="sourcePoint" />
            <mxPoint x="680" y="49.66" as="targetPoint" />
          </mxGeometry>
        </mxCell>
        <mxCell id="waE4sCZhkBapJmtRks2j-65" value="" style="endArrow=classic;html=1;rounded=0;" parent="1" edge="1">
          <mxGeometry width="50" height="50" relative="1" as="geometry">
            <mxPoint x="400.5" y="140" as="sourcePoint" />
            <mxPoint x="370.5" y="140" as="targetPoint" />
          </mxGeometry>
        </mxCell>
        <mxCell id="waE4sCZhkBapJmtRks2j-67" value="" style="html=1;strokeWidth=2;outlineConnect=0;dashed=0;align=center;fontSize=8;fillColor=#FFFFFF;verticalLabelPosition=bottom;verticalAlign=top;shape=mxgraph.eip.recipient_list;rotation=0;" parent="1" vertex="1">
          <mxGeometry x="780" y="314.5" width="172" height="90" as="geometry" />
        </mxCell>
        <mxCell id="waE4sCZhkBapJmtRks2j-68" value="&lt;font style=&quot;font-size: 10px;&quot;&gt;Brand&lt;/font&gt;" style="text;html=1;align=center;verticalAlign=middle;whiteSpace=wrap;rounded=0;" parent="1" vertex="1">
          <mxGeometry x="882" y="314.5" width="60" height="30" as="geometry" />
        </mxCell>
        <mxCell id="waE4sCZhkBapJmtRks2j-69" value="&lt;font style=&quot;font-size: 10px;&quot;&gt;&amp;nbsp;Department&lt;/font&gt;" style="text;html=1;align=center;verticalAlign=middle;whiteSpace=wrap;rounded=0;" parent="1" vertex="1">
          <mxGeometry x="892" y="335" width="60" height="30" as="geometry" />
        </mxCell>
        <mxCell id="waE4sCZhkBapJmtRks2j-71" value="&lt;font style=&quot;font-size: 10px;&quot;&gt;&amp;nbsp; Product&lt;/font&gt;" style="text;html=1;align=center;verticalAlign=middle;whiteSpace=wrap;rounded=0;" parent="1" vertex="1">
          <mxGeometry x="882" y="355" width="60" height="30" as="geometry" />
        </mxCell>
        <mxCell id="waE4sCZhkBapJmtRks2j-73" value="" style="endArrow=classic;html=1;rounded=0;" parent="1" edge="1">
          <mxGeometry width="50" height="50" relative="1" as="geometry">
            <mxPoint x="740" y="359.56" as="sourcePoint" />
            <mxPoint x="770" y="359.31" as="targetPoint" />
          </mxGeometry>
        </mxCell>
        <mxCell id="waE4sCZhkBapJmtRks2j-74" value="" style="endArrow=classic;html=1;rounded=0;" parent="1" edge="1">
          <mxGeometry width="50" height="50" relative="1" as="geometry">
            <mxPoint x="900" y="294.75" as="sourcePoint" />
            <mxPoint x="900" y="260" as="targetPoint" />
          </mxGeometry>
        </mxCell>
        <mxCell id="bXgrke7fS9s8xpsyp-bB-3" value="" style="shape=image;verticalLabelPosition=bottom;labelBackgroundColor=default;verticalAlign=top;aspect=fixed;imageAspect=0;image=data:image/png,iVBORw0KGgoAAAANSUhEUgAAAigAAAIOCAYAAACS+PauAAAAAXNSR0IArs4c6QAAAARnQU1BAACxjwv8YQUAAAAJcEhZcwAADsMAAA7DAcdvqGQAAGv5SURBVHhe7d1dTBzZ+T/4r8caKQqLwjQIrNgaLAaSAAkIwkgWxihRRC6wItoX3NjtiBuG+SFnoyDQLv9YCpPxht2AuLJQWCsSirFvuHCjyNxwhz3IihAIZgApEGI2dmQs3MOIICczmZk9z6lT1VX9RoMBF833I5Wot64uquvlOc85VXXi228Xfw0iIiIiH3nD/CUiIiLyDQYoRERE5DsMUIiIiMh3GKAQERGR7zBAISIiIt9hgEJERES+wwCFiIiIfIcBChEREfkOAxQiIiLyHQYoRERE5DsMUIiIiMh3GKAQERGR7zBAISIiIt9hgEJERES+wwCFiIiIfIcBChEREfkOAxQiIiLyHQYoRERE5DsMUIiIiMh3GKAQERGR7zBAISIiIt9hgEJERES+wwCFiIiIfIcBChEREfkOAxQiIiLyHQYoRERE5DsMUIiIiMh3GKAQERGR7zBAISIiIt9hgEJERES+wwCFiIiIfOfEt98u/tr0Z4bQAEYai8zAKkYvd2DMDCVUdx03rwK32m5gzoyiWC3ouRtEsRlKa7umRZZbgdl9WRbtpLLzDrqqs8wQsDIeRM+IGTgA8n2tGMK1/kkzJhPVo32oA7XZZlBsTaOP55MjxjrH5c0MJNhfrd+4bDnRtN2Q72jA88ErGHxoRlFKmZVBkWCjEeriGURIusEITofMtIMg3zd0HZVmMLNJUGK26zjQ7IP/u6k3jJ6D/H0z0KY6AVvHxjTyGgfQZMbTq9jG1KA5NlTXt1yKrruHt20P9TjI5HPe1jZQUh//v4WCKFO/8c4kkLmD9jozGGcYPZcZnOxGZgUoZwPIWZuPlsYf3sDgAZYQj62ReaxkB3DWDNIR9HASi1sFOJ30ZEp7Ndd/BX0zBWjorDdj6EjIXsdGpAaXYoK9pvICLC6vmyE6TBlWxZMqTWeVNJoLrX4pSep5Yqp4Es4j3FVHksK9DbS21yDHGnPg6fLXK7YqJjr8WKfxl7BRXYPitTBC3cMx1WxSuoyWGtzVDJsz0+pzAWu58pnyeevzImY49neZyO1whplST4+nyiXB9q16MY089TtC9vtnwYS/obWMCSyWBK1qDc+2t44/qypwFVPqIl12LKp42oDbMSXjdM4rZp6J5VI0m2Mieh5xb0v3ucg69p6rbVtbDfx/G1l4O8+ax/4tzspvuRAGGq3PyzLvnbKPO+/xmN56mc9Ajc/Yc545p0l22H0ecm2LBte+HL/d4K3qk3Ph/TP6s4sq6KktlAz0PKrc59HYawrPYXEyrJGspNAG1MmzAyN3w560pz4BL9hpWJmnLS4Vl3Qe2UndVUeyIz28gWuD09iUHUuNy9zgJF5lZ4MKRqKZqhwdZKjt4gQn7mq2JZS1m3S3mtZVve5Mu4VSV7uW5OSi2Ax1wJvPyUlirDuI0TXrJKl/DzMvpZZTbR0bI40FmLpvTsJGcYm6oJrti5EOZ3uHxtdRe7HFzCXLaFAXZJk2gCnYJU65UFuFA+tz88h3tXc5zlKee7Jr9IVPT/NUu8m5zP5MWAXyQVeVUZEO/EKXr+B//e+Jj4PiRrkQ2ssM68BUltU3A+e3THe9nM8ch3PeSBhTgQZnO1SeK8XGgxt4bA1qibfbJAbb1PGwZar77ABHbcd8PW9MO7tE1xQziaIy8C4e2VHkR5cSRNgEKfU4HZCDVp2Y5eR8VyLdLOR76iiSzyM7KWbC3h3s2ClCs94uYXSVLKHPPgCVTde2qTxVoE6WroNRndQm1opQpX6H2Glz/RNYMf3J1eO8unDGXkxpb6S0Z51Yh4Cr9vFhWVEn4uhJUgIOcyxIKS9wxqmb35wZMiXwSXy0vI28U1KVUYR8TOOWKWHKBfbeTDr19hks8kRtzx3OPepi72wz17EiJDC3PiOZEHd13ComnO2cmHOcPXyCDdf8c8/sqor012vu0RI2Xb9/ZpN9Gig7J/t0Cy6pAtWsJxBL51riorbjvQSBHK8p6cng24xVCWR8FcXldsnPRLZ2xKq6+BJA4nnO5mZh41nqE0LmczWS3WO0L9tx99SFL3sdT93pc9oH7uAilnXXQv4D83tLqdlMSaruDOyaBlKl7Is1wItVM5TOucdLV4XmTpj5pWRuJuyr3a/XcSAFJ52xClUgL2EQ8erbjdeU9GRWgBIa8JQIpcRumcTTSJYnTR0v+TxjCyrQ4R0PaZESmmdb1V1HQ+GqLoXo7XghegeArioy/XgcwWZhhfO5pnK7/cMwZlWpsrk31W9HuyeZqWQnSQkKt/Hc5LWltGe3O0hKGt061T1CSp/Hs4pHqgCaA3YGYodzT3YpztuZEdexIhewTTvAqatHmfs25n2RzjnxuDLnnMYCLD6KPT72Z7vxmpKezApQRsJ4fsFOvXmrIsa6VSkkEHSmjSS4DTDpPCMdulW+XcUxYt9mZ07KXWrcod3m53ex26q9FIuDJt2spo1GrO0l06RxrVPFY9Lb9ueqYJc+43+Xm+buCOsgV+OOza3er85pg3LXeq5D4pLfMO5Ju4N28zvlru+cQVEn7sHbVnsHa/nSkPO4VPGoC5bZVtLp9lKuLGPKc8/WOvKvmvGuY2Xs/jRg/1ZXA9hIkUHZ63GQzjkxzjE558n231yb8DZ8NpJvN6t6SO8LOxWokl1TyCPzHtRGRHQUmDtE+JBIosQyuA0KERERHVUMUIiIiMh3WMVDREREvsMMChEREfkOAxQiIiLyHQYoRERE5DsMUIiIiMh3GKAQERGR7zBAISIiIt9hgEJEtGfmrc9xjzZvQc8+P75c3vHDV2rQccIAhYjolWxjMxBk8EC0zxigEBG9osUH08hzvambiF4dAxQiolf1+AYmIjVoNW/a9pCXArqre9zDpr+p847rrbYt6LHfcpuo6ijhG3BNVZOZZmdzKtVyb3Zetz6z0xt2iXyGAQoR0T4Y6w5jo7oN7XVmRLqya9CAIYQuBzGqgpyuuxWYVf2hy2GsFDZ4llfcaE+z5rUCIglO2oDb1nj5HBoH0GR9BDnVAesz3cNmDNHRwACFiGhfDKNnfB21F3eZqdiaxq3+Sd37+MU2NmfCGNNDq3i+pXscK+MdZpoKiO5PAyX1qEQR8rOzUNtuZ1CCKEYBTpvAJro8oqOFAQoR0X4ZCWPqtTSYXcWoyaxY3RUMPjSTiI4oBihERPtmEoO3pcFsA/LMGDx8go3sUpw3GY3Kc6XIsXp3rbg8mp1pulgDLE9iTmdaitCQqP0L0RHGAIWIaD89lAazWa4gZBj3ZuBUwbTmrmPTTNmtFVQ4DWGbEcY1XTWkgqI2af/S4UzzNqAlOppOfPvt4q9NPxEREZEvMINCREREvsMAhYiIiHyHAQoRERH5DgMUIiIi8h0GKEREROQ7DFCIiIjIdxigEBERke8wQCEiIiLfYYBCREREvsMAhYiIiHyHAQoRERH5DgMUIiIi8h0GKEREROQ7DFCIiIjIdxigEBERke8wQCEiIiLfYYBCREREvsMAhYiIiHyHAQoRERH5DgMUIiIi8p0T3367+GvTnzG+cfrnePOtWjOU2hefTuHfT/9khoiIiMgPMjJAyf7+H0xferY+ed/0Ubx6tA+1AbevYPChGYUW9NxtwPNB17jQAEYuRNDX9gSX7lZg9nIHxswkR9113GwPYCLRtB009YbRXGj1r4wH0TNi9aekv68GOWYQ2MaUe52TkO+qWkj0HYm2hSL/e2ORGXBZCyPUPWwGXq/Kzjvoqs4yQ1GbMwO41j9phg6XrFMrhvT36/XLndhxe6U732uh9wNgdA/7N/mA+zhOcux6jiPPPHJu6EBttvR7zzPuc5d3mpxHgyiOG0+2Y1vFk5110vRRapP4aBkoO1dvhpVQhTqospB/1gwrlacKsLk8iTkznNDDG7jmnLzlgL6D9jo9kJo6cTRDnQwuBxEanEbeheuoNJOSkpONDobUZ+xufN2zzvtmpMN8xwCmtuREY77PRxfRuf4rZh3DWMGquoha6/i6gpNYev3S2F7pznf41P58IUGQSkeDFGZ0cGmO44AqoITMNJs6p3RVryecp7KzDbURc45S55naq/Y5qh6nA65zwmU7CJHzXxB5qoAQ/xmyHbsA5cQJoLv1HfzxwwoEvvWmGUupzD1bR05u9OTbVF6ElbVVFJe3mDH1OF8CLD465IudOmHc7HQFTg5VMklUklWBRFqZF6LdCgVRtjytgj86iirPlQIzYXO+mMTgA/f5zaILYUnmOZubhZUFEziPzGMlO4BoWWgdT+MyI0XIz17FhF1AGAljCqU4n06B7RjJ6AAl+5veLIkEJ79+7x0Ef1KAk2+cwBuqozTIAVdYgSY9ICWCVcx2u8fJwRZzEEoG425Yd05JREopQ1JKsNOhWahtV/P0mhOB6zMjej5DBRajCFrjrwK32m6kztRIhmdtfoc0u6yD+S7p7HWI5V6n3kTBUGqS3nU+7/qfJFV8s7Mlug7u/zdm3eJKcvvIWo/r6JHvkm0g/697W8QMu/+fpMHh3QG0q+WO3LUzZDv/P9Z62MuTZdjzW8uyp3nnS/4bynr2hFzLSfb77gsrIJ7of2KG6aiRAGPjmauA9TiCzcAZT0ZD5olj5nn8Yjsa0HjOP3JuLEKz2Q+dfbfuDPKsPhdvVpoyOEB59wc5+PNgDeqq3tLDEpD89hffwc9+XIC1f75E628+xsann+tptJNVPN8qQpVcWOrqUYYIHutxBTgtF6C4gEAdkOXzJnWpShlxVTKq9NHmqg6RlL1cCO3PqK5vuRSt9sGspjUXrmJ0cBqb2TXOeMnkeE4qhi7pvFg1Q9ZFzb6IWRdHK0AqWzbpVdVJABR3wdVp34JoenYhYOqY06Prnu2qKfM/dbkulDnVDcBtmaa2BWpwyVk3aedivvNyGGgcMIHgwcipDmBWvmuHqhP5f6RtjrVeA1gsaUtSRVek9pEhNY+ks3f7/8j8rtT35XnkJ2g7k85vWNwobaGs71wpbEivOnEPmnqDwDjbnWS6sYVV5JTUO+cyOf/YpOrRKURJWzznWBpGj9k/ZT/cqO6wzkEPJ7Fon1OFnFd3cW45LjI2QJHcyMmTJ/D7zu/hwg/fwu9+9V38tDYPf//HS7yngpPIZ19YM1IapB3KNvJOqZP/2QCg25pE26bEBgQS0IzaB2hcujMxWQYKzQGuOmmIpquVJEiQA16qa3QbFrkwykHegqrANO4lqLKJrZKy21/0zWybMapUg2nccrW/GLs/DbhOPpr8rzND0YZrkobdMv07sjJNznZQ5vonXFknaaBqL9u1fXWJy2SW9LaQRnQmEDwg0bR1KvL/yEXfXi8rA5a4xOdKXe/6/5H53Z8fxj3nd3Pb+TdccYKGYcyuHUzpVILfhhcDrDo8DiSTG6lBlzlHVb1QBabIE3UulGDZFbzfBlrvJgrCrX3ZOs5VIe32NPLs4+kqsLi2jeePrTnJkrEByl8+3sQve5fw5Vdfo7+rFD96N4C/Pt5Ga888Nrf+a+aidM09WtIn/3ZX1sIKBPav/YncUWKXhnUnF3cVJOTok4DNPrBVqfVBkqoeSc+6AoG90kHTaxFtxGp1fmnd727sZ3XpXZh38f9I6ntLMnRHQQsuSSCtSsXR4EvS+Wk2/ibfkCoaK3Aw4s47lrHu6H58D6WAFMx0VtlVWFIFqYk1V3YkGV3gMstre4L8wkRtVY63jG6DMrP4mQ5S/vP5V1j827/w/gcL2Nr+0kylXXn4BBvZpSiT9if2gSjZkYAaF9v+ZA90sFMdjA8qdLDhTc83XbRuHY5txOZQB/6tmQI0e9p1uK3iOaJVRUKWaWWGonRQ5l6nUHAXVTyTeBpRFytXlU5lZ0MabWOs6rSG2OqmwxIT3EXT2PL/ZKH24m7bcuzy/5HUt1PdJawgIF56v+HBcqfvpbPvkOLtokeN91hXBbELRabRq2RHEgScddfRWr1uZfr0udG7z1YVJsqGyL6cuDAn1YR5aWUyj5eMDlCEBCn/88EnaP9wAdsvmTnZOytNnhNxX2DlIqHG7XjRTcSqInIayY50oE+CCpM+lc6qq1WlDLkFz6kiCOuUun2bnzNfDKnW0W0+zGek6ypZMqUcaQNj1Qfb06StSNwtt3agYy+jPLKLKh4pbUXX0f7+aN10MvHr5m1Ae8BM6c/+n6vUb2yL/X+kAevOWard/j8xqe+7FXiesIonzd+QKB2eY91q2xSXHZTqZrOvWY8wiFYh9sjjD5x9VtokmSDV/Rn3eMXd4FzOadx34/FBbQof1EbkX3bjXLbzIDpeMjKDIo+vT9du5iWiQ6ZKoA2FrmpFIjo2MjKDQkRHl749O+GjwYnoOGGAQkRERL6T8Y1kiYiI6OhhgEJERES+wwCFiIiIfIcBChEREfkOAxQiIiLyHQYoRERE5DsMUIiIiMh3GKBQWuS18vZ7I9zvUpGHat18XS+2e1Whgej/pLoD/z/k+1wvD0xPkpeVERFlOAYotDN1YdUvurPf2voAOG8umPL68YN6yZUEP4leBLiv1sLOm2g3qtsYCBAR+QQDFNpR5akCbLpfYz9yIwMfPW69rTn/rBkkIqLXio+6p53JK8Pba7AxHv9GWc+bZqUKo7HImrA2jalAKXBb3qPSgp67FZgdB5rN9BVnWVKF0YHabD3aymh0D3vfx7I1jb7bQOtV4FbbDStQknWyh03/YqQGtYWrGJXXoJt1ztELMON0v4usb/m8/j7P8tQkqdJqxRI2qmtQrNcJ6n8Iotj6JDZnzOvRzecmlkvRXJ2lprjfHeP+39T4mXXU5prvU9z/o7M8kXQ7WqOIiI4DZlBoZw9v4NrlMNAobTWStIeQC3Vjgbo4m2qghUA06NCK0CzBgEwbX0XxBbsdyyQG28xnLg+oi3GDXr5UHY2uWYFMyA5KUsmuQb4KlEJ2cCLBhl6m6iQwStb2ozBotUGRAOyB93tyqgOYlc/rgGIYPfbydHVQEE3WbPq7GzCkp/XNALUXre9q6lXBScSuQhoCSkzQodiBnf1/L5aY6qUdtyMR0fHAAIXSZC7Qg0soa08QpJwNIGdtIlrKHwljasv0a6sYNZkDjMxjJTsApzZFMga6oapkG/ZYzbI1jXt2dkfWRQUNXXYDWMlGBM44DXs9nDYoQcyWexvKbs6EPVmXaENhyaQU4LS9DdR33zLZj7lHS9jU31WP0wHX/yyB2INV0y/TgGId8MX832rdMTOUYjsSER0PDFBodx7ewK0ZoOyc944X3U7lhX0B3gUJTi5EnAa4kjXZF67AQ3dpZGHGFlaRkxvNcrhJcNKVO2GWN5BG0FCE/JSZD6kKcq2f6qTKS7YjERExQKE0VHYOeDImZ3OlrYWXZA7grvYIBdOqmtAX5MgTEzy0oMpudxLr4RNsZJc6dw9Vnis17UsSeBzBZqFVVbQbTeVFSYMs+Z+daXX1KNvxf5NGt0VocDIy9Wi/YAc/k3gayXKqgtz2uh2JiDINAxTa0Vz/PPLb7eqIMJoRjr+1WGdWCtBs5hkpj6RVNTHXP4EVux3I3QrAlUGRjIauBtHPXRnGPWnfYdajNXcdm2a+ONJmZnzdmVe6pM84cb47yf9ljN2fVoFDhzXv1QA20vjfxrqlrYr5zN02YDka/Ix1S3ub6HeP3B2wgpI9bkciokzDu3jogJg7dxLdPUNERLQDZlDoQFR2NqB4bZ7BCRER7QkzKLRPJGMSfU6IfnZJOrcHExERJcAAhYiIiHyHVTxERETkOwxQiIiIyHcYoBAREZHvMEAhIiIi32GAQkRERL7DAIWIiIh8h7cZ046aesNoTvCOnJXxIO6dMi/Rc97am47ET5lt6r2D0/evRN/kux/kZYTl83r9nBf+7WpdiYjodWAGhXY01u19625ofFW/LVjevjvXf+XIXPCP0roSER13DFBol1rQ0wiM8kJPREQHiAEK7UpTbxAYj1bNSLWJ/aZgq78F7UMxb+jdI6lact72q99oHJV8Wr3r+++g/ZQZrbjXVbiXkfRtx0RE9FowQKH0hQbQDKtqJ5mc6gbgtlUV1DdTgObeFjMlVhGa7QDDdO52Lrrdi/ouu1qpb7kUXWZZqad1oDZiTxsCSor0+FiyjKoF6/OhywNYLGlDe52ZSERErx0DFEqTVO0UYOp+6qqdzZkhp5HrXP8EVgorkmRRVjFqAgy7G10zk1CP0wE13VWNFF3WbqZNYvDBqul3k/mA4kY7OFJBTXYW8s+ayURE9NoxQKG0VHY2IM8VfPhTEfKzTe+OtjE16A2QUmWGiIjocDFAoZ3VXUdryRJu9U+aEcnllNQ77UEkqClem/fcSpyeSTyNFHmqh6LLSjVtGLNrRWhw2pPUo/1CoioeWUYWai8mq34iIqLXjc9BoR1Io1OpAjGDLvZzUFoxhGsqeJFGqK2560BhEXJkhq1p9LXdwJye2y2d56DEfK9nWammybKDKNb925iaWUdtbvQ5KPa6xv9fUuXkXR8iInp9GKDQvvEGAERERHvHKh4iIiLyHQYoRERE5Dus4iEiIiLfYQaFiIiIfIcBChEREfkOAxQiIiLyHQYoRERE5DsMUIiIiMh3GKAQERGR7zBAISIiIt9hgEJERES+wwCFiIiIfIcBChEREfkOAxQiIiLyHQYoRERE5DsMUIiIiMh3GKAQERGR7zBAISIiIt9hgEJERES+wwCFiIiIfOfEt98u/tr0Z4xvnP453nyr1gyl9sWnU/j30z+ZISIiIvKDjAxQsr//B9OXnq1P3jd9lFgLeu4GUWyGgFWMXu7AmBnaD5Wdd9CKIVzrnzRjdlKP9qEO1GabQbE1jb62G5gzg7LMrtwJhLqHzRj/2v3/v3t6e1RnmSFlLXwktk0qh7Hd0mMdIxgPomckOhw9ZiybMwM+WFdKKDSAkcYiqz/JseE5hjzzuM9H25gavILBh3qCpe46braXYtEer4drkGNNdaw4+w+JY1vFk5110vRReiQoCSIk3TjQPHQdlWbK6yMnArNOqutbLkXX3QE0malz/VdSX4DlJOGL/+PwyAXS3l5HPTjxi6beMEbuVqgLlhmhDaPH3s66C2NFHUMTDE78Sc4FjTDnuAFMBVSgEDLTbCqA6apeTzhPZWcbaiMqYJFp4+uovWqfVyRwUfvH1QA2tvQIy8MbuObsG6obnMamKmDdY3DicewClBMngO7Wd/DHDysQ+NabZiztysg8VrIDOGsG/UICkr6ZAjR01psxRAdvrFsuMh2YNcOJVHY2IG8mvK9ZR9o/ledKAef3mcTgg1UUl7foIVvlqQIV4Cee52xuFlYWTMDvOT+q+drU/tEWxnM9nFjTxRpsPIhmf8mS0QFK9je9WRIJTn793jsI/qQAJ984gTdUR69GSo/ukoZ7WPd3qpLJ3TBuqqBB0qM3O1usEoUaN+LKdsSySqVWJ59N19yjJaBEfZfqt77P+qz028sb6VUnFTvFml2DLjVO1tma/zp67HmUxOthSkVmvPX/JhqnyPeYcd7/V6oAouPPm7GvQ+zvlPR/EZIGt9c7SfbJ2gdc/59nvuTLdm9r92cOY785WPU4X7LO7ImPSYCx8cz1+zyOYDNwxrN/yzxxzDyPX2xHA5pQBYrX5ncRjLagKsDsSSIZG6C8+4Mc/HmwBnVVb+lhCUh++4vv4Gc/LsDaP1+i9TcfY+PTz/U02h0pDaZ7ABaXALcuB51695zqBuC2ldaUbEezCQTc5CJTtWBSn5cHsFjShvY6M3FPWnDJSc2qTqo2JMVq0qp9apxd75tTHcCsmSfpeoSC0XSu/dlE4yQ4uWr9/3q8VI3p/1cu0kFVorarW+aR724bcoByqjsSXsCjvxPUurU5v5FUTaDRBAQSnJTPm/FWlVprkiCguLHC2o6qG43UmPnk/068bNnWzYhuP11d59o3Xs9+s0/0vrGbCxb50djCKnJM4Uc0lZv2Kopkb0cRtI6tCxH07aL6VGfXlieZPUkgYwMUyY2cPHkCv+/8Hi788C387lffxU9r8/D3f7zEeyo4iXz2hTUjpakIzebC1lWylPYBuBKTttycGXIaj831T2ClsCKmNFyP0wG5wNklYWl4loX83dQnRZ7EHOyreL6l1j+N9ibRFG6K9ZDSVWHQW0JPNO5swMnQ6GVIAzxd4ipCPqZxyylRD+PezLbpP1juNijuxprR30mtm/o/a9vt/1saehbgtLrQS4ob6n+0xqv9QAVVObnRk7Tbyni0EfXY/WmT1Uq2bNnWqxh17VOx+8ah7DcHpKm8AFP3079gkU+NdOhg2z6eq16oAo4+11hZQSc4vg20psjyeTG7lkrGBih/+XgTv+xdwpdffY3+rlL86N0A/vp4G60986rU/F8zF6XP1UjWdafMwfA2fpUu3ZbtUpeLF6tmyGbqgfWJQ51cEpS+E0uyHqaB2y206ROVrqZINE5IS3/X5/W2qzuDPDPZn1y/te6idyR4GtlKt4uSoiX5sl/d3vebgyPp+yV8tG//Ix0EqaLJOxVTuIgr6NjtjazuHkqtc40KsMtUgcOpolHngom1IlS5q0aTkc8yu5ZURrdBmVn8TAcp//n8Kyz+7V94/4MFbG1/aabSfvDUvcrJuND0JuFOkSauKprE04gqZV9MN4iI0tUEAXdmIoYOIsIJSt+J7Lwe+i6hcW9jOs84nVVpiK9meDiJRdTgknMCkyqow6ni2ZmVbUrU0Hju2TpyqoNplQzd20QHjTqFnWzZsq2LPNU2sfvGQe43B0raIyS40JG/6LZrzr5dj/YLRabRq2RH7sQfw3XX0VptMh8Pn2Aj23s8VxVu4/ljM5iCbpwbV6AiW0YHKEKClP/54BO0f7iA7ZfMnOw3K91up/1jb7WMtxkJWFkM1SWrKhrrtm7hs5YpXbJ0qbu6wLRhSJjdcTdIlWdVmOoHEyjYjWRjJV0Pd0NRuTVR/odE4yQgklsOXetoVQFNYvD2NPKc6ogKPD+kKp6dSbYpjA1XWxWnwepIh9X+wx6vukTbTaygwplHfherOin5smO3dey+sb/7zeHRd37wAuR/6li95ezbHShbHojPvrkbvLcHMOE8C2oYPYPu41nOMellBuMa55IHH9Sm8EFth0PuxvDHQ7XoINmNVfereoX7DdHxlJEZFHl8fbp2My8REREdjowMUOTdOpIVSafje3iIiIj8JyOreIiIiOhoy/hGskRERHT0MEAhIiIi32GAQkRERL7DAIWIiIh8hwEKERER+Q4DFCIiIvIdBiiUBnlU/CE8Nlw/Svr1P56ciIhePwYo5B/6ZX7R1/QTEdHxxQCFiIiIfIdPkqU0SBVPBWYTZDfkxXDNhVb/5syA80I3ecFbV3WW7t+cmcZGdcD5fNJpUsVzFbglbyQ2/RPLpWjW825jatB+Q6i8Ar0DtdnSr8bPrKM2dx4h+63CjUUyAdiaRl/CtxsTEZHfMYNCe2a/tTZ0WboBLJa0ob1OTVBBQlf1Okb1+CBuoRTF1kdST4uVXYMGDOn5+maA2ostenRTrwpOImHzvUNAiQlIJHC5UKACGbNODE6IiI4sBii0R/U4HQCKG8MYuSudZDSykH8WqDxVgM2ZsJNtmeufwIrpTzUtztY0bpmMzNyjJWwGzqBSf+82pu4P6/HAJAYfrDr9TyNZqG1nQ1sioqOOAQq9Aql2MdkK0/WMAGdzs7DxzAosYqWalp4i5Gev46mu6ok31i3rMY8qCZqGrquAhoiIjiIGKLRHJlthql3cxhZWUXwhGhxUdjY41TippqVnGLNrRWjorDfDUq1jV/HYhtFzeQBTKMV5qXIiIqIjhwEKpakIzboqx+p6QpKtUEFAIOiMG7GfYTLSgdFIDbrM+FYsRatxUk1L01h3GBvVHeY724Blu4pHGs/a69KBsuUh06iWiIiOGt7FQwfPfXeOGeVINS1NcldQK4acO4iIiOjoYwaFDlzTxRpgeTJhAJJqWnpacKkaWHzE4ISIKJMwg0L7T7Ii7TXIMYNYC1vPKBGppqXJ/RwVsTJuNc4lIqLMwQCFiIiIfIdVPEREROQ7DFCIiIjIdxigEBERke8wQCEiIiLfYYBCREREvsMAhYiIiHyHAQoRERH5DgMUIiIi8h0GKEREROQ7DFCIiIjIdxigEBERke8wQCEiIiLfYYBCREREvsMAhYiIiHyHAQoRERH5DgMUIiIi8h0GKEREROQ7J779dvHXpj9jfOP0z/HmW7VmKLUvPp3Cv5/+yQwRERGRH2RkBiXd4ETsZt7jqwU9d8MYsbuh66g0U1B3HTfdw6+kHu1Dd9BeZwYPTeLvrey8g56QGdgvoQGM9LboXlm+3X8Y5PtudtabodSaesN7+N9lO9r7yev4HV8z+W3vDqDJDNr077xvxwgdGP37mf03yXGpf8uE8+yw78t5Mul48znuI3GObRVPdtZJ00fpWcXo5SBCqhuN1KA1zQsdJTfXfwWh7mEzdPRVdrahbHlA7yOh8XXUXjyk4MsV9Gmxw4dCXaAuFJl+w1x8WnPXsWlGkU/Jb9UIc44bwFQgGB+gq/2qq3o94Tyy79dGwtF9/6odbJjA5WoAG1t6RJR8Z3sAE3p5qmu7gTkziSzHLkA5cQLobn0Hf/ywAoFvvWnG0m6MLawiJzfmZEyUxIFkovwmFFTB2TRWzKD28AauqQvPtfsRM4L8qvJcKTATxpgemsTgg1UUl3uD3MpTBdhMMs/Z3CysLJjCxsg8VrIDOKsH1HxtEnyE8VwPRzVdrMHGeIdZHiWS0QFK9je9WRIJTn793jsI/qQAJ984gTdUR7slJcUCTN2PL/nHVgt4h90p0N1XH8iy7M96U6ExqdXOBKVp+3OvWO2QfB12sX6nzGgltsrFvYx0q2JeiWwbz7pKVd4OaegEVRi2uf4hLJZ0WPOVz++cHXL/Nu71SDjeu/84v7HM26iC5cKgGq/W/f+IGT6Uaia13VTpe6L/iRmmo0YCjI1nk2ZIeRzBZuCM5xiXeeKYeR6/2I4GNKEKFK/N7xB41ON0YBXPT0WrjA7lmD9iMjZAefcHOfjzYA3qqt7SwxKQ/PYX38HPflyAtX++ROtvPsbGp5/raZSOIjTrA6kDtZEJDD40o9MiF5c24LZJZV4OA43JL3Sx5MLdDJM+VV3fcim6zAWqqVfWx542BJS4Mjv64mWnbVU3uISy9mTfm4XadtcFUHVd1dETUup12OP6ucgyqhbMel4eUBf6toO/uI6EMYVSnLe/R59YY35bCU6uArfM/xYaB5rdAaCLTnNjGn3jqzpAsILQepwvAZ4/1rO4qH1CAt1Bs1w7ve1JtdvjZf/piFYfqW4UQeuEPtKh1kl935ps4ysY/H9ihne1n+5NU28QYEk44+nMcUm9E7Q0lUePZamulX1SnzsuRNC3Y9VtEfKzi1CbO2H26TA2qg/hmD9iMjZAkdzIyZMn8PvO7+HCD9/C7371Xfy0Ng9//8dLvKeCk8hnX1gzUpqibVBCCxVxGYTU5GB0BwBBFKMAp9M6GK2SxqjrgJ/rn8BKYYUKNGTatiubY6VdbZKSXXFfOB7ewMRaEaoSZm/UcuyLpen6ZrbNtJ3WId1p3vWLkvmA4kZ7+6igRm2vfCtHfIAm8dEyUHbOKrnJCddJU9vOBpCTXYMuE7Tp7ERMyVJTwWCXnGwloJCgQQehd9AeqkdZwoB2Ek8jsk94A0Zvqt2m9h8V+Nzqj5Zwx+5Pq2AverF4XSQL1vBiAD0jZgRlLrVfS/s7+1ioejGNzcgTE0CrYbuAcRtoTZFpjHKfu4Yxu3YYx/zRkrEByl8+3sQve5fw5Vdfo7+rFD96N4C/Pt5Ga888Nrf+a+aiPfHUsabLFeDobj9KtxL4rOPpIZSS90bWz/TuKD5AOoyLngRTG/pC34KqwDTuJfpOnY1wrVuCxny6fv6FO/gaRo80FmwsxWKC6kAx1i3Lm0eVnPBNwBuXave1FlyqzkJOtanW0oG3ZBoPq2qJ9otU0eSdclWxSGCugw8va5+1untQwbTs83UqCFcBtHPspCwI2VbxPLbRLMXJ6DYoM4uf6SDlP59/hcW//Qvvf7CAre0vzVTaM6kK2IogNmvvqYeVC16h6dUHYxEa9lTHKiVtddJ3VStUdjaYOl4pdbiXK9UGrrTrs3UUu6uS6q6joXAVs7u+8Kdah72vX5TJJhzWXS8eah0jpTjfWYG85cm4E7Kuiy9s2PGCK9s6pzroKjXa/2uWk6FJTAUyckeEqWqSNLrnN9PU/gPvnWPSwBCJ1vdQybpHL1iSNVrRgfjhVC3R/pl7tAQ4+6+171rZRMmOJG6X1Vq9jgnJ6j18go3sGlxyAhI5920nqNZ0s7KXzjG/53NTZsvIB7Vlf/8Pps9S/s7/htWnL/Hy34mDk61P3jd9lJg0npTSoU1OwqbqxG6joEvV7vlWsaIuzliwMwExy9iaRl9cSVxOBlK9YQaVzZkBXOuHd7zns+7lbmNqRpXac6MNNCUFH21LIlmKRBcP+V5pI+OdJp+99OyKWf+YdfOsQ6ppyddPlt+KIfX/ScYg9n93beN94t0Wir2eTlud6PfZbWL0/243RDWs3yQ+yxG7/JVx+bz9/8due+//616mZznOtozZfySr41SdxX5Hsu88aPK9FZiN/d08xwj5lXu/i+6PrnMD1O/YXoMcPUfM8Sm/sTPN3vfNgOZajmt/1O3XdEHusPfVo+FYBCg7YYCSObwXfUqLBCDp3HVDRHSIMrKKRx5fn67dzEt+J20CgMVHDE7Sp0p2TjqbiMg/MjKDQsdH4moFM0CpmaqbZFU2RESvEwMUIiIi8p2MvouHiIiIjiYGKEREROQ7DFCIiIjIdxigEBERke8wQCEiIiLfYYBCREREvsMAhYiIiHyHAQoRERH5DgMUIiIi8h0GKEREROQ7DFCIiIjIdxigEBERke8wQCEiIiLfYYBCREREvsMAhYiIiHyHAQoRERH5DgMUIiIi8p0T3367+GvTnzG+cfrnePOtWjOU2hefTuHfT/9khoiIiMgPMjKDkm5wInYzLxERER2OjMygZH//D6Yvueysk9ja/lL3b33yvv5LybSg524FZi93YMyMEZWdd9CVO4FQ97AZk5jM14ohXOufNGPSFBrASGORGQA2ZwZ2vwyKUY/2oQ7UZptBhdv11TT1htFcaAbWwuZ4kGMmiGJrrIPb2sfc5xvnd/TS57zqLGsg4TzW747xIHpGrDEpP1N3HTfba5Aj/VvT6Gu7gTk9gcSxa4Ny4gTQ3foO/vhhBQLfetOMpb2Y67+yY3CyIzkp9LaYgQTkgL4cVF0YG9VtaK8z42kP5OTZgfwHsj3tTm3X3GgQSLvVgtMvBpztOYogbnbWq/HD6HG2sbWdV7CKCQYn/iSBQiMwqn+rAUwFVIARMtNs6lzVVb2ecp7KzgZvUJrqMzo4CWDC3kcYnMTJ6AAl+5snTZ9FgpNfv/cOgj8pwMk3TuAN1dFRMYzZtSzknzWDtGtNvd6SnUVdSF81yDzWhjHoCjoev9g2fV5y4cqbCXsykOQfledKAef3mcTgg1UUl3sLTpWnCrCZcp4WXCpZwtSaGVRSfabpYg02xr1ZafLK2ADl3R/k4M+DNaireksPS0Dy2198Bz/7cQHW/vkSrb/5GBuffq6n0d5I6tIqLQopnYcxorsBtHumiSK0D5npQ9dRKaPslGphUI2/kzo7okobDYFp3HOlTW92Xre+02RgJNVufb/rO6SUYvcrMo9nnc00Gd8Tcv0PqbI6R1ILqgpXMesJTuK5t6Hn95Pfyt42rt/Ksz1lW6vfvskaOpbO5mZh41lslqQe50vWmT3xsbjf7XEEm4EzznlDyDxxXPPoAsCDG3hqhkXyz9TjdGAVz0/dSXy8kZaxAYrkRk6ePIHfd34PF374Fn73q+/ip7V5+Ps/XuI9FZxEPvvCmpH2gbRrCKoSop3qnke+Xedq5FQ3ALdNmhM1uCRpzpEOhMZXTTXOFQw+tOb10MGLOoDbVWlDHfzuFGhOdQCz8n3dw/pC2Qy7OiiIvuVSdEmQ8fAJNrIDsBIv6iIdUCXcknrrpBKqQHHkibPM4kZpZyOfD2OlsCGzqpPqziBvK4LHZtAKJkzA4Qrwqhas7Se/02KJqVLTgaSd/lbd4BLK2q1AZKxbqt6Cql/tA1dLsTh4jEuEajs1u4JoRyiI2sg8S8pH3NjCKnLsc4fSVO6qGpXfXp1/vNnJVJ8pQn52EWqlDZ8557AKO17GBih/+XgTv+xdwpdffY3+rlL86N0A/vp4G60989jc+q+Zi/aHHGzu+vVh3Jvxpro3Z4ZMADKJj5a3kXcqzdKC0wYliNlybykjmjq1SiOjrqqKuf4JFWRUqAunVA0VoUoCIhWQ5C1PYBFWwCLp15WF6GdWnHRrBlYneQI15eENXNPBxjQ29QjZhhKkmaDlrjSktbaB3k7uVLT67IS9TaWKaBxoVvOXLdu/8fGjM0/l8wnbETSVF2DqPqvRjjxVoBqN1KDLBPZVL9SxIwUcCfYvRNCXqKo02Wf0xG3XfsEq7EQyug3KzOJnOkj5z+dfYfFv/8L7Hyw4d+7QPootnR8QXRrZQ4NO+ZzU+1aeAhYfDasAqUBdXK20+05VHpljFc+37KAiGXXCHDRZEtPFlggTknS46T2OnMxTwrY8krVbwkfHNHA7KqTtkKfQdDaAHFd21TbWHT027qEUeLGq25LkZEeDELmjSwJ9uzCV6DPW8agnUwoZHaAICVL+54NP0P7hArZfMnNyIB5OYtGuttFacCmmimc/SHp0Ux/csSbxNFKEZle7Ed2afs2k1UfmsRKowKXciL5QzD1aQt6FNpQdq7T7JAZvTyOvMVlbH9mGWai9GN/2Zu7ZujrhutqWSHsgpz1LC3r0nQiuKqHjRLZFgtS+I6YakfxJzgnQVZWiHu0Xikx2VaqvExwz6ndvrbbaFbkDEOlG1yQbG4y/ndz1GSuTjOjx5jmmyJbxAYpY+Nu/8PLfzJy8GhUAmBKCdN7b6+yLnz29As9jqniSkuAhVSNZuw2K6qSON9kzJMa6rVv47Hm7SpZcKddhzKoAJu/FpHWh0AFVFjZc1TvHglTr6PYj9u+kuvZSLJo0c+w2lMbO+oQ90oG+mYLo7y+f0W1N7LZHUtUmdyiso9a0TTk2pKTt2kd152qUre/iSBhUk6+oY+OWs49LdeVAfNCpggin3ZYOytNob5XiM/KYBrkt3Zp2zNtvJcFH3fNR9wfCTnunVUVAREQUIyMDFHrNpNSQbgmDiIgoAQYotC/0bb724751Y8sktw0TERGlgQEKERER+c6xaCRLRERERwsDFCIiIvIdBihERETkOwxQiIiIyHcYoBAREZHvMEAhIiIi32GAQmloQY/92PP9JA90cz0WfF+EBqxHR5vO/fZjIiI6Ohig0CFK8uKt/bYWNi/uCmOj+hi+wI6IKAMwQKEMNozZtSzknzWDRER0ZPBJspQGqeKpwGyCd+u4H3G/OTNg3jYs8wdRbI0244H2oQ7UZpuRkuW4fwY3rwITy6Vors5SI2MekS/VNY1FVv/WNPrabmDOrMvzmQLUViP+kfrymfJ5hORNxlKFpJZ/S3/OvMDwxTTyqmsAs66eR/Q73yEk22Ovr1qvmXXU5lrLjX0RonfY/Tnrtet6fML/hYiIkmEGhfbMvjBb1SkDWCyxq1OG0aPH2dUsQTTJ6/jbBjC1JUGIGi8BhMiuQQOG9Lx9M0DtxRZrvB1omOX0qSCm1WlPUoQy/Zkk7/uxX3/fXoONB95AoLhEBSxqeU5wArs6yPqOrl7r+5t6VZARsacNASUmuEhJgpM24La1PPnf0Shtd9T4CwXW/y3jGZwQEe2IAQrtUT1OB9QFv9FukCpZg2h1SmXnHTNeMikFOJ2sHcjWNG7prAsw92gJm4EzutFs5amCaKChuq7qLOTk2kHCKibMZxJy2qAEMVvubSi74gQssv6rGLUDJWWufwIrhRU6oDgdUIHUfXuaCq4erJr+VIqQr7ZBbbu9Tez/fRJPIzL+ABoaExFlKAYo9ApMNsQEA9JJdYYEJ125E2acZE3M7LskVUPuZTtZl10YW1h1BTbpkkBjHU/39DZmFfS419lkeca6pX8eVRK47PedS0REGYgBCu2RyQrYVTIuZ3OzsPnCZBzq6lFmtzvZhbln68jRVUOvpqm8KLouHrL+RWg2VTqisrMBxWvzGNONa4vQ4GRepIomGuQ8frGN4nL7cy2ostuwqODk+Zb7c7Gk6ksFbCjFed5ZRESUEhvJUhq8jV6F1fjT2yDUyh50YEwap7bXIEdGba1iBQV4ftvKJOjsijSIdTWStRuxxjZqdeY1rO9M3mBXczdGFfI9JvMS27g1tkGrt/Gq+3/2NpL1TlP/nwpm4Cw3ZlvpZU7ivOt7oo2JiYgoGQYoRGmQYKkVQwwsiIgOCat4iHbUgkvVwOIjBidERIeFGRSiBBJXL5kBIiI6cAxQiIiIyHdYxUNERES+wwCFiIiIfIcBChEREfkOAxQiIiLyHQYoRERE5DsMUIiIiMh3GKAQERGR7zBAISIiIt9hgEJERES+wwCFiIiIfIcBChEREfkOAxQiIiLyHQYoRERE5DsMUIiIiMh3GKAQERGR7zBAISIiIt858e23i782/RnjG6d/jjffqjVDqX3x6RT+/fRPZoiIiIj8ICMzKOkGJ2I38xIREdHhyMgMSvb3/2D6ksvOOomt7S91/9Yn7+u/lEwLeu4GUWyGsDWNvrYbmJP+uuu4eRW4ZQ/vQlNvGFULQfSMmBGJhAYw0lhkBoDNmQFc6580Q3skyyyfR6h72IzYvfh1r0f7UAfyH7jGybZpD2DicgfGzKjXy/s7roybdd339ZTvqcBs2svb7fw+495H3ccGHS3u33EtnPD8UNl5B13VWdaAex7PeWoVo+59Oely3cfjNqYGr2DwoR4g49i1QTlxAuhufQd//LACgW+9acbSzuSgCyKkutFIDVo76834QyAHtf7uMDaq29BeZ8YfOAk67iT8vrGFVRSXt5ghpa4eZdlA3inXdjkbQM7avE8uuvK/BAEVlFjbcgDPT5n1f3gD145qcPC6SXDXWKAuLq/p2KD9oX9HmHPcAKYCKngPmWk2FWh0Va8nnKfpVAR9erzqxoHmoeuolAlJl2sdj3mqwGV9Zh21V81nyJHRAUr2N0+aPosEJ79+7x0Ef1KAk2+cwBuqo92Ti3NObjSrcXiGMbuWhfyzZvB1ehzBZuCMc0KpPFeqAqlVoKTeGddUXoSVhb1nafZXEfKzVzHrZHwmMdjvl3U7wnQQOuGUfMfuT3v2AToa9PE7EzZBujo2HsQUQJTKUwXYTDLPWL8raybnBtObfLnW8ThhZ4NHwphCKc4fWuHraMjYAOXdH+Tgz4M1qKt6Sw9LQPLbX3wHP/txAdb++RKtv/kYG59+rqfRbqjI/4IqMd5PcHGTVObdsOliMg/uaXbpwkWqTEbuDqDJDCekSiMNgWncMxdZSbdGvy/6WRl/s/M6emR8r5wMpLRiz6fW65Q1nyPhestnOlCbnYXadns5Lg8nseg6oZzNBRbvh13j6nE6sI3nj/Vk/f/1qHW6qb7jppSwk2wra91bXOu7wzZJmwR3RdGSnZuU8sz42O+PXddoqVLS02rdXNP0vB7WdneXRPVvFrstbcmWJetnxu/f9tgfctGKkx2AH2JoSt/Z3CxsPHNVHccUQITMEydmHk2C1sgTHbAkXW7dGeSZUVE+KXz5SMYGKJIbOXnyBH7f+T1c+OFb+N2vvouf1ubh7/94ifdUcBL57AtrRkqTurjpC4S6aEeiJUaPkQ4rXWmnLC+aC5Enzam6mDp6uWg1Q6pxklQzFAati1N7DTYeRD8713/F+b6+mQI0uC5qOdUBzMq07mEVHMg629VEQ6qE68r+yEXRvW6DSyhrl4ugKu20DWBqS+qGreV4TeJpJAtl5+Q7W1BVuI6nKmiRcfokI1U+WMJHru1UXALcUt+h29Ak21ZKTnUDcNuaJv9Xc7IL+i6NdavlLZeiS7ZlimVGv1+q1Dqs9jp6PVXp74I7wFH7hD0tYfVbbEm0HufVNkgY3CZbluw70sZJj5d1wL5tj/0w92gJm4UV0eBYlZhzTD9lFp05jsmQxlOBu1T5JdzHXaSAs1WEKjt4N1XE5JWxAcpfPt7EL3uX8OVXX6O/qxQ/ejeAvz7eRmvPPDa3/mvmovRF26CEFioSZkE8mQppFGZKF940p1fehTvoyp1I2CDN4bRBCWK23F26llK89X3ScM1d7RRNxUomQ627s3zrommTEvDKuCswengDE2uuE0cKTlWXlIZMWxOnbYqrFGVbcQVXybaV2JwZcgLAuf4JrLgugK/KDupGoYK+JBf66Pev4rkEaPbJ1pW6tri36zDuzcAEbC4j89H1TxC0RSVZlmzH7BorqEqwrV47tb/ckiDSrF+r+v9WtiIwiTPKJKpQIW2M7H2x6sU0Nt3HuM4ASmPvdBq7qvPQ7WnkNZr9WgXhi2vRjCtZMroNysziZzpI+c/nX2Hxb//C+x8sOHfu0CuQi05cGtuqEpG7WHQwMagOXjMlLs0ZaxcXnGj7FwlOGvDcNE6U0n1iUtdrevebufi2SwD2wny/SeG2p2x/knxbHZax7vC+Bj7JSbBRoAM+CVTdGbC0uQJU3fnsLhl3Ju/aswCKYwJT8r/HL7bjG7gn+B0lC2n/1vfgOu4lONEZQG8WOOVydeN0e59+gnydhdVzkZHRAYqQIOV/PvgE7R8uYPslMyf7IlSB4rhSogQC0RKAO9WtswqNidsObDy4YlU7JMzIxJO06qacFHQdbvSATpxuFVbbi2j1jwoOLkTnnXu27l03aedS6G5MmopkGApQVqJKP49MAGbappS52p/ES76thDuNXNnZgOJ9uRNIBXTujEnCOvDdcmeaWnCp2rUdXKQaJK/8Os6XrKfYrkmWJQFfYUNM1ZFfpZneJ9+RfRTVQXMesM4RVgFDChMJ7uRT54nW6nXTyFXmhysDGJV8uV5NvXJHT+Is83GW8QGKWPjbv/Dy38ycvBq7DYrqpM1GXCnWSsvrBqVqntbc9WhWYKTDakthfz4mGJESqNU2IsGJQNhtUFQnbVV0Gw5TFWMvs0oFC8lItkC3pdDztgHLrnlj1629FIuDdiloEh8tm/8pYXWINT3HU21htUPxjouVYlspm5EAWs36dJUsoS9V9Vfa1He+aDDbIPb/3Cu1HcvN8u7KLcxJUtsStAVqULac6gScZFlSypQ2OmZbSRffGPd1ilYzjuiMHp9lcSR5quo61L46EP98Jndjbc9zg6TA4To/6s6cy1Is17oxwOoaXuzD850yEB91z0fdk49Ig+FWDB2Bk5VcmNN9uJqUQlVgeJsXbyJKX0ZmUCTgkKfDptMxOCE6YKEgalNmlIiI4h2LKh4ieh0kcxJOUiVIRJRaRlbxEBER0dHGDAoRERH5DgMUIiIi8h0GKEREROQ7DFCIiIjIdxigEBERke8wQCEiIiLf4W3GlAZ5aqi8KyLmcczy6OeLT3BtD49i3/mJqdZ3FpuhKHmr8qs+op2IiPyOGRRKz9Y2UN12iC9tG0aPedNn38w2NlVwZL1FlMEJEdFxwACF0pO9jgl5advFRC/NIyIi2l8MUCh9I2FMBYLocV6LHyM04Lyd0/PGYvdbQO8OmFePR0l1j/P2z3R4lhd2rY9UC6nlu9bDX2++JSKidDFAoV2YxODtaeQ1xgcZOjgpnzfVMEH0LZeiVQcHKmjQr/a3xsdV0ajPdZUsoe9ymm+6leDEs7ww0OgOborQ7KxHGBuHWi1FRET7hQEK7c7DG7g1U4CGmMxE5akCoDDoZC66qrOQk1ukApAKFK9NJA4+StowciGCvt28SO5sAJgZci1vGPdmgLJz9vqsYtRptBs7jYiIjgoGKLRrc/0TVmbirBlhRBuymk4FChK4bL5YNXN45ahuMzuAmMUQERExQKG9GEaPNJi9UGqGVdDybB051cG4qp+5R0tJ7/7ZXB7CtXGgOUG7lKQeR2KW14JL1cDiI/t25SJUudqkeKcREdFRwQCF9kYazCJLZ0G0kQ70zRSoYCOm8erDGyoIUcFMuz0+JhhRnwvpIMXd2DWFuOUFgXF3+5VVoDzZNCIiOir4oDbKIHIXTwVm+awUIqIjjxkUIiIi8h0GKEREROQ7rOIhIiIi32EGhYiIiHyHAQoRERH5DgMUIiIi8h0GKEREROQ7DFCIiIjIdxigEBERke8wQCEiIiLfYYBCREREvsMAhYiIiHyHAQoRERH5DgMUIiIi8h0GKEREROQ7DFCIiIjIdxigEBERke8wQCEiIiLfYYBCREREvsMAhYiIiHznxLffLv7a9GeMb5z+Od58q9YMpfbFp1P499M/mSEiIiLyg4wMULK//wfTl56tT943fZRYC3ruBlFshrA1jb62G5iT/rrruHkVuGUP70JTbxhVC0H0jJgRiYQGMNJYgKnBKxh8aMYplZ13cOnZldSf3QNZp+ZCq39lfId1O4pke5bPI9Q9bEakT7Z5K4ZwrX/SjKEo6xiBZ59JcdyQ/+hzTZHVvxZOeIzIMdBVnWUNJJhHnz8QHe8+nzi4H6Tt2FbxZGedNH2UnlWMXg4ipLrRSA1aO+vN+IO3uQXUXr2OSjN8YNQJSp9c5P8cnEbehUP4Tjry5CI0crdCXbDMCFvdGeTJxcgcNyFelPxLClqNMOe4AUwFVKAZMtNs6vzQVb2eeB4Jbu6qApc6T7qNdZvf3nSjah9ZecD9IF3HLkA5cQLobn0Hf/ywAoFvvWnG0m6MLawiJ9eUNA5BTmRCB0WXYk8Yh0WdfG4eYkBGR4t1EerArBn2iDzhxegIqDxXCsyEMaaHJjH4YBXF5S16yFZ5qgCbyeYZ6dABSM+CNZiQCoIaAtO4l2lZ2QOU0QFK9je9WRIJTn793jsI/qQAJ984gTdUR7tVj/YLBZi6n6CKwJQirO4O2uvMeOGeNhSfmbBKoQNoMsOxxu5PI68xyfRE3yvjPN8j6fYBvN95ByO9rhOPlJzs71UnmVEEreXssdrqSEn4e8l28v528tskCtCs38x0rm0t492lT++w2n+Gop/rCaX/fUfO2QByCs3+FHs8kK+czc3CxjNX1eXjCDYDZzznKZknTsw8qUgQtMHsya5kbIDy7g9y8OfBGtRVvaWHJSD57S++g5/9uABr/3yJ1t98jI1PP9fTKB1FaNYn2g7URiY87UEcphShu/F11F40gYAnfaq6mAu/1OtaVSsdpnSSwMMbuDVTgGZ3cGFL9L0jYUyhFOfti0KoAsVr8/hD/wRWCiucQMdTclIX7ObCVYwOTmMzO1qN1VRe5D15ZYqEv9cw7s0AZefsAKEFVWqbTMS0O5EgwqkOU13fcim6Ev02MZp6O1C2POB8rmckve87kmK3b3vyAJz8T2eOS+qjgbg6L6SvBZeq1zHL7MmuZGyAIrmRkydP4Ped38OFH76F3/3qu/hpbR7+/o+XeE8FJ5HPvrBmpDRF26CEFioSZkE8pWNpbGZKF970qVfehTvoyp1Iq9HmXP8QpgINCUqiib53Eh8tRy98TeV21mcYs2tFqNIl+nqcLwEWH6mLoQRRFyLokyBJBUPXLg9gsaRDl/CrMjYtm/j3mnu0BNgnYhPYeX+7epwOqP3B9ZvNxQR+iSUOPnb+vgwgAfNWAU4zi3J0SYY1UoMuXVALo+qFKsikW4Wn9uu8JOdASi5jA5S/fLyJX/Yu4cuvvkZ/Vyl+9G4Af328jdaeeWxu/dfMRXsyMo+V7ADOmkGLXOw6kP/ABDGShTBT4tKnsdJOk0q9ryqJXr3u+u7k3+tc+HTd7xI+MlkfXV0kdcd19Sizs0GSjvecbNR33ZZqpSCQYWnZzRfSkC/5dpNs1UTEyj5FA7t9oBuNRvDYDDoO6vuI0vT4xTbyTrmqFePOBxZ3o9d7UAUvfSztTPZrXRCiXcnoNigzi5/pIOU/n3+Fxb/9C+9/sICt7S/NVNozKeXGXWiKkJ+9jedmpGRNcqxenRotTtJ+ZOPBFat6IGFGJgFTimkoMcMpvte+8F26GFP3+3ASi4EKtEud8IK5GEqdc6E3O9N0sUYvK7ax3FEWra5Ksd2UsYV1lJ27jipXYBc1iaeRIk91W2Vng5P5kJN9dJtJ1sT0ynZH4jvAUn9fBggFUYsM/d8ygC7MVAfNOUoF7xeKsKLPDRLIJ2g/pAo9rdXraVZFyjGwjqf87XctowMUIUHK/3zwCdo/XMD2S2ZO9s5ugyLVAcBoXANSqy1Bbbs1T2vuerREroKKPmk/Yn8+JhiZ6zdBSpoNCSUDgmy7wVqK71XkwlesTg7eul+p/ilAbclStOpGqnV0OwGzjqpreCFtJazbCWU47rbDI0Ta+cj/IO1GrOd0pN5ukiXbqK5Jmj0a645uF+m61LbsM1U+VnWPPc19++0kBtvCarkdzuecbbrD9x1F9jbXXcJjhnxDHf+6jZv+vax2UnHPQNIN6s3v2R7ARKo2c27JMoe0Iz6oTeGD2o4fPnRsJ3J3TQVm0z0Jv7LD/j4i8ruMzKDI4+vTtZt5KVNIi3rTOJYSclfZHIbD/j4i8r+MzKAQJWM/qjojH2O/LySTEUTxoT2O+7C/j4iOCgYoRERE5DsZ30iWiIiIjh4GKEREROQ7DFCIiIjIdxigEBERke8wQCEiIiLfYYBCREREvsMAhXYg76KIfcx7kvdTGPKskZvmfSvu/n0VGsBIGq/3f3XynA7zHiH9qGu+Mp+I6DAwQKEdyBuEV70vzHO/Bfg4kff18FHsRESHggEK7WwkjKlA9E2/8pZf5y3AREREB4ABCqVB3v4L1F5s0dUcDYFp8xZgq/on7s20KTT1Rud33mosVSeuNxzLPNFqoRb0xLz9OCX3G0c962SqaqRqKG6a4ho/0ns96SvWnfU0/U3OG2u987v/zwOp4iIiynAMUCgt1iv0K9Aj2RP9SnwJTtqA20GELksXBhpTt8+Qi7a87t+aP4i+5VJ0STuSh0+wkR3AWT1XC6oC20BJvRUIhCpQHHmS3jtaJGhoL8XioHud3IFDEZrL561p46sovuAKNhoLMGV/biGA2mz9gdSya9CAIet/mTEBnCL/Z9WCvQ4DWCxpS9peh4iIEmOAQmkaxr2ZAhQ72ZMi5GdnobbdzhQEUYwCnE56Ia7H6cAqRrujVUN20NOklj27VoQqyWiogCRveQKLsAKWylMFWEm3OulsAJgZcrWNkXUGys7ZGQzX94/MY8UOitTnctZcbWqkSmvL9KeyNY1b/dYbkeceLWEzcEYFPPJ/AsWN9nbpUMFOFvKt6IuIiNLEAIXSNvdsHfBkM9QFX2cJ7O7KnhvOji1YDXErTwGLj4bx0XKBCljqcb5kHbMH/NZhCYI2X6yaof2wHc3GmI5vTiYi2h0GKLRHq3i+VYSGtNtXTOJppAjNrluDKzsbULw2b90VIxmNQAUu5UbwkQpyJCORd6ENZREzPR2PI0C1uzqlBZeqJeCxshzJyHehOhitngoF06viSUj+zyynuoeIiPaGAQrt0SQG28LYqO4wVRmq26Ex61j3AKYCQWf+rpIl9DlVPsOYVQFM3otJK0PzcBKLyEp9t1BhdFkj0gBWbgMeX/dUO2E8jayO+tytmQI028sqj6RXxZNE7P+p181MIyKi9Jz49tvFX5t+ItLkjp8KzPKZJ0RErw0zKEQxPFVPRET0WjCDQqQzJnIXkrE1jb42uZWaiIheFwYoRERE5Dus4iEiIiLfYYBCREREvsMAhYiIiHyHAQoRERH5DgMUIiIi8h0GKEREROQ7DFCIiIjId/gcFEpfaAAjjUVmQN7Yu/e3FxMREaXCDAqlpak3jJELEfRdDiKkuyHg3Cu8sVeCHdebjYmIiNwYoNDO6q6jIRD7+PdJDPaneNMwERHRK2AVD+2osvMOWjGEa/2TZkyserQPdaA22wyuhRHqtoIX+WxXdZbuB1YxKm8IZlURERHtgAEK7Uiqd6oWgugZMSM8rOCkbHnACWBk/oYX0WGbJ9CRIKV83glkiIiI3FjFQzt6/GIbeafqzVCsIuRjGrdcwcjY/WmgpB6VekjeFBzGiOokk5KTa2dOiIiIkmOAQjuae7aOHCfg2A0JThrwfNA0rB1fNeOJiIhSY4BCOxsJYwo16PLcdaOCDz28iudqWmtnNMPSdLEGWJ7EXN0Z5GEdT037kqZyZk+IiCg9bINCaZO2Jc2FZsBu8Kr7JVMSRLHuV1yNZN2fWVlbVfPY7U7sz7CRLBERxWOAQkRERL7DKh4iIiLyHQYoRERE5DsMUIiIiMh3GKAQERGR7zBAISIiIt9hgEJERES+wwCFiIiIfIcBChEREfkOAxQiIiLyHQYoRERE5DsMUIiIiMh3GKAQERGR7zBAISIiIt9hgEJERES+wwCFiIiIfIcBChEREfkOAxQiIiLyHQYoRERE5DsMUIiIiMh3Tnz77eKvTX/G+Mbpn+PNt2rNUGpffDqFfz/9kxkiIiIiP8jIDEq6wYnYzbxERER0ODIyg5L9/T+YvuSys05ia/tL3b/1yfv6LyVSj/ahNuD2FQw+NKPQgp67DXg+6BoXGsDIhQj62p7g0t0KzF7uwJiZ5Ki7jpvtAUwkmpY2+e4gis3QyngQPSNmIBn53qvArbYbmDOjkpP/twO12WbQsY0p9/+reefdnBnAtf5J1SfreJDbYG8qO++gq3odozHf3dR7B6fvW/9bU28YDS/s/4PSIvt+Y5HVvzWtjgGzn+nfugY5ekKi/Yd8xf07roUR6h62+l2sYyjLGvDM4z4XxPzWSZfrPpdx/0jk2LVBOXEC6G59B3/8sAKBb71pxlJyk/hoGSg7V2+GlVCFOqiykH/WDCuVpwqwuTyZOgB4eAPXnIujHNB30F6nB9IknwkCKigJXZZuAM9PtZhp+2USg21m+eOr1glFf1f8yaOptwNlywNmehATav0qzbSkPNsg1l62ye5sbhWguTf5NhvrDjI42Q0JQhoL1MXF2gdGIzVo7bSOlcpzUIGo2ZcGl1DWPoAmPYV8R/+OUMG7/F4DmAqogk/ITLOpQMMK8OPn8ZwLxtdRe/W6OReoIMTZP9yfsc5leapQE/8ZsmV0gJL9zZOmzyLBya/fewfBnxTg5Bsn8IbqaGdzz9aRk2tKAEpTeRFW1lZRXG5f6OpxvgRYfHTQF7Yi5GevYtbJmKhgoj++lHM46nE6sO35n8f608nQvGbLE+ok2XCgQdCxcjaAnLUJJ3gduz8NlFiB6pzaH5xA9OETbJhe8p/Kc6XATNj8Xuq88sB9frPoQljCeVpQVbiKCTuwHwljCqU4L8dY3RnkbS3hI71/SGFvG3mnJIC1zmUJP0OOjA1Q3v1BDv48WIO6qrf0sAQkv/3Fd/CzHxdg7Z8v0fqbj7Hx6ed6Gu1gZB4rhRWm9CcXZhUkdLvHycG2jqfuDIOkNe+GdeeURKSUMiSlBDsdmoXadjWPXaJ3fWZEzxdrGLNrRWhOOE1xf/5ukkxEOvOkxcos1aYqFafcBtH+9l6Z5//F7xJtk323qk6syUtrUsUTLTnK72RvK9f4hL9TknkznFy04mQH4EouWvSFKoLHZpD85WxuFjaeuQpYjyPYDJzxHCMyTxyZJ+63ncTTiMkwS2CabQceroKcfEZGeXiz0pTBAYrkRk6ePIHfd34PF374Fn73q+/ip7V5+Ps/XuI9FZxEPvvCmpHSsIrnW0WokotOXT3KIAejjCvAaTnwpMpnbd5VbaGCiPJ5k7pUpYwLsRdDqUYZwNSW1LuqeaROVi569mdU17dc6qTK3aQKQqZ1yYXQfRGXzzspWtUlS6mPdDjfodOqF/ceCMz1X1HLAJo9F2rbTtvAyK5B/oKsz3v4X7Hb5KCobeCuikgmtgpLt/XxpMJVp9tbSHAi7ZTMuMthoPF4VGfMPVrCphOoWyVxq82Jm9o+V2uw8eAIZNgoqbGFVeSY7JiQTPLOhtGjz0USuHcg/4GpKn44iUX7nCrkvBrX7o0yNkD5y8eb+GXvEr786mv0d5XiR+8G8NfH22jtmcfm1n/NXJQeV2rybADQbU2ibVN06vPFqplXrGLUvsBK9iVRiTKGLokWBp0SuDREc1cruenAQF0IR6HmN0GKfH5l3NW24+ENTKy5TgAOV0lfGq7FlJJ2zQQ8OmjyBClpboOtadzbqZHvARjrDmOjOpgiiIhJWxveVLhNMmgm86N/P2n4Z4LXTKf2s1szBVaQqrpWLGHFXZqWgO6uFbzt2Jib/M0E9rpwpLqqF9PYjDxJHXRKwUka6JuAfrY8jJu6YKAKabenkddojhk1z+LaNp4zxeaR0W1QZhY/00HKfz7/Cot/+xfe/2DBuXOHdkdKilK33q5KDXYq1Gqbsn/tT+QuGKsEbrodsghykY1WM6VDghMpxZjlD6oTjJnyqub6h45YHfIw7smFNVlVUpIqibhUuEMFZO7fLkGj4kxlB8zSXXsWQLF90ZLgRF+ceHeG3z1+YbcNMaRtUYLgQzK49m99Tx3vkIKZrsZxF0Cs9mkSbOj2eq7MmbuNktVg3iyv7QnyC2OqySmzAxQhQcr/fPAJ2j9cwPZLZk72zNSllkn7E7skKJmBgBoX2/5kD3Swk7JEL1rQ476guupx5fPF7moFdXFoKHQ3qBVS0o+WUhKn49Olgp1ed8ZElm16jwgdVAUa0BAwI9wkBY34aiBJc3u2s2ZVATbsUGWU+cwdG/etwLrpYikWb7Na5yjQBTDn/KOO7QsqsFiQ31EKNQnaqqnzS2v1uskwWm3jnP0/FEQtrIaxEvi4q3f1OSdB4NPUK3f0xGYmKeMDFLHwt3/h5b+ZOXk1chBmqYPL3dZEXZigxnnan6TLbmQatqppRjrQ50qVSxff0FKV+l80ONNH2tUFYNBU68R+3j3NIVkD851qntbc9VfIoExicCHgpHulWgPjr1pSjtkmB07uRFCBYcLAStoJSTVQh/n/zO8Ru511tVb8vIkbOWcieZaF+Z89zwaSUrS72svqjkvj4SPHU1Vntb2Kq5LT1XXmt4x5lpFVZWr2f2mjZZ6FI9k1d7VQV8kS+kxmWBqk2/sFnz2UGB91z0fdExER+U5GBihERER0tB2LKh4iIiI6WhigEBERke8wQCEiIiLfYYBCREREvsMAhYiIiHyHAQoRERH5DgMUIiIi8h0GKEREROQ7DFCIiIjIdxigEBERke8wQCEiIiLfYYBCREREvsMAhYiIiHyHAQoRERH5DgMUIiIi8h0GKEREROQ7DFCIiIjIdxigEBERke8wQCEiIiLfOfHtt4u/Nv0Z4xunf44336o1Q6l98ekU/v30T2aIiIiI/CAjA5Ts7//B9KVn65P3TR8l1oKeu0HkzQzgWv+kGafUXcfNi09wrXvYjNhv1vcWmyFgG1ODV/DRuTtoxZB3XRKqR/tQB2qzgZXxIHoeq/Vtr0EOVjF6uQNjZq7k5PsrMBszb2XnHXTlTiC0X/93aAAj5fP7t7wk9HpXZ5khZS184N95HDT1htFcaAY82zRm/92aRl/bDcyZQfIZOQ4bi6z+ZMdG0nncv7V1nhp8GLNv2Nz7gZxD9TkpZjxpx7aKJzvrpOmjtGxtA9VtaK8zw4dGgokgQrqzDvq0hYKojaiTiPpsz4g6WVyswYYKVEJpBSfJzfVfObIX9k0VZFrbcgBTAbVdQmbCfpKT7tB1VJpBK1C88xr2ncPQgtMv7G0axCiCuNlZb02qO4M8ueiYaSFefPxL9tlGmHNNsmNDBSGNBSr4iJ1H9m+rAKd/5/F11F619v+xbvPbm250TRWWHriDkwAm7OncP+IcuwDlxAmgu/Ud/PHDCgS+9aYZSzvKXseEHHgXW8wIOtom8dHyNvJOmYsp7dEwBl2ZvMcvVCDvFnnCi84RUHmuFJgJm4LLJAYfrKK4POZcpwPOJXykC0nu46cI+dmrmLD3g5EwplCK87EBuQpIGgLTuKcKS8IqML1aYSnTZXSAkv1Nb5ZEgpNfv/cOgj8pwMk3TuAN1dEuyIGXtNQtKc4wRkxnlSJlnLfkLCnPnv9rACOeEnb8fOnSy3OtjzNsp2ILg2p9BvB/mlRrcaNav97+hOvllHx3IFUl9rxWf4sqQZn/PS5zEN0m0fV0j1frccqMPlT1OF8CLD6yL65prmun2q695sQt29jMr6fJ9rRT1tk16NLLkc9LNVsWatvVfPqzifaVzHA2Nwsbz8w2PRtAjt7/XNuHfMnzu4nHEWwGzriOZeXhE2xk24GH6/iRwEXP4JaF/LOm15AgaMPOnqjPnw6s4vmpOxl5HOyXjA1Q3v1BDv48WIO6qrf0sAQkv/3Fd/CzHxdg7Z8v0fqbj7Hx6ed6GqVLlSxuTyOvcQBNZkzUMHqcVGYYG9VBNc8w7s0AZefsA68FVYWrmP11TAkjVIHitYkk1TdFaDYHsAQa8d+bxEgHQuOrVj3x5Q78390mvSpVPN2dCdfLKQHtUk51A3Bb/u8B9X/V4JK+uMuFuc2Mt7YJzHZr6lUXbFP1FLo8BJSYOu1DkFPdYbalrJtdZbbHdZVtrMerzs6uPbyBa4PT2DRVGz0jap9pU9tlS+rl1Xy6aizRvpIBVMDW7Cohx22f9l3sv+RDar8dXEKZBNp3O5D/wBw/DyexuFWEKjuor6tHWbbpd7TgUvU6Zu19Q2ddilArbdmc4+B1VKH7W8YGKJIbOXnyBH7f+T1c+OFb+N2vvouf1ubh7/94ifdUcBL57AtrRtoddQG6NVOAhgTRvmQTrIufNBYrwGl1sM09WlIXtXqrJKICkTydRpX0aDRAaCovwspCsjYd7jYo+5cOjV2v4rX5PS97c2bIXOhj074ma+DZJlbJadRpw2Klkw+L3QZldC3LFaClWlcVWNxPtq6u7Ipkq2JLnCkk2leOMsnA6YbOydoRSPZx6+j/n8eaZAyvArfM+Wi23M562AU3cyyoeRbXtvH8sfUxzTn3ubmPrWHMqmMyNuty3GVsgPKXjzfxy94lfPnV1+jvKsWP3g3gr4+30dozr0p3/zVz0V7M9U9Y0b7rYNJ3iDilASkxmwlSutDZEnUxu1DgVCnoZegAoQVV7lLnYVGB1kTEyuI0lRe4ThT7yR1cSSclLgkGzOTXaKw7NnORbF3X8TRhZsuqusl/YOaXrImZspOk+8oRJcFJ1YL6X45ow2my2g552mNJ9VxM+yFdkHKqaNQxdH86WsiRzKF97LQ9QX6h97iRc0y0OlWs4vkR3+8PQ0a3QZlZ/EwHKf/5/Css/u1feP+DBWxtf2mm0t4No0dS1hdKzbBVh7v5wpSuPSlOKXWvo+xiEGURdzWOKjFIgNCpShbLk3tuSCgnlmhjNqmqMb1pGFtQ63XuugqQ7IZv+0lOQEUJMk1SUnKPl8Dt8Kp4oqT6rQDNuk3IXtZVgpdoKVHq1/WtkmlIvq8cQdLwEWF9l1hKckcZDmI/o/2gM6pOwG7t51ZWVwJxq/2QPtdciLYx0/t8gkbQTb1yR487WyLnpdhA38oiOzcdyH4k1d+HXVDzuYwOUIQEKf/zwSdo/3AB2y+ZOdk3uqV6lnNR0qUJu33D1QA23KWDkXlsFBZhI6YaRwKE2mrsue2HkEzMitMQsQJYMxPSIetVXQO4SkXx3G1g1IXIaTy6E2l7IVkKu82H6kwDWit74WoLsnx4VTxu9rbrCe1lXa32RXa1UGvuejSDorNmdiNZGWFOxqaRbMp95ajxNIQ1ndl20Wos1cktrLyN1L9M1bV1rHegbHkgLuiUxwuMRqz9Wn7TrpIl9Jmsma7iM+MbXsQ+L0ru/onAXeMj9PJg9p32UiwO8o6eWHxQm8IHtb0mUqd7CA8oS07uJol/EBslJxfd9B6SR0T0ajIygyKPr0/Xbual/eROo74elZ0Nr9Q49viROxHctyYTER2cjMygkM+ZZ5TIHSWvpyQumZMgivlo6R3pBq2ux+PrVwawnpyIDgEDFCIiIvKdjG8kS0REREcPAxQiIiLyHQYoRERE5DsMUIiIiMh3GKAQERGR7zBAISIiIt/hbca0A3kXhfvV/EKeI9KA54OucfJskwuRg3+uiHmGimMtfABPopX/uQO12Qme+xHz/a/vWS5ERJmNGRTagfUeleir+ZVQBYrhfTV45akCbKZ66V/dddw07yh5ZRKUmDeHyrssrFee7yN5sVvE+o6EDyVzvl/eU9OmXyT2SiTo0S/tIyIiGwMU2tHcs3Xk5EazBvq142urrrcI1+N8yet5BPrYwqpn3Q6XvO3XG6gREdH+YIBCOxuZx0phhfMq8tOBVcx2u8fJq/fN68QlG2De6jly13pNuc6etNcgJ9v9hlvFPa+TXZHqowG06zfBms+nSd4o2tOpvkstz8qqSFWNvS6q82Qpkkyzq3D0G2oHzP+XhLwiPTCNe06W5VW/z/y/CbcLEdHxwgCF0rCK51tFqJLAoq4eZZBXh8u4ApzWF9SK6Ev3Rjqc6pfQ+DpqL6oL8cMbuDY4jU15941dbSIXYXmTsZm3b7kUrU5VTZH6jiE13t3uJRF10Y954WBxCXBLLe9aP3Q7Enltuv0d0eogCRaSTJP1H1811ThJ3nJsv15fBV0bD+w2NymWmfb3yf8r/1MBpgat+UJ8VxARHVMMUCgN0g5lG3mn1AX1bADQbU2ibVN0+5MX6iKrycXYlP4lMxA4kzADIJ9xLvSqkxfSRatqVjGRquGp8znrou9uJ7LiBAxFyMc0brmWM3Z/GihR65tyWhpcbWBmy+1szX593ySeRrJQ275D9oaIKMMxQKG0zD1a0hfU9vIibDyzLrRW2xR3+xMrU5D/wJT+JWui50xM7oCxL/S6S/duHFeA8LrvoDmINjBj3fK/zaNKgjBW8RDRMcUAhdLz8Ak2sktRJu1P7IyFtE0JqHF2+xPJFGRv4/ljPRWV50qRY/XG0cFNdfAAswSreI4aV7UR0HSxxmR/Uk3bHWkwbGWP9vv7htFzeQBTKMX5V71LiIjoCGKAQmmy7ljJiZi2JppceNU4u/2JmufeDFDbblXbtOauRzMoDyexqC7STiPZkQ70zRSgWVfVWJ3TeHZfTGKwTW4D7nCW34ywybikmpYGV9VUesvc4ft0I2S7kayrikxXYQ3t0A6HiCgz8UFtRERE5DvMoBAREZHvMEAhIiIi32GAQkRERL7DAIWIiIh8hwEKERER+Q4DFCIiIvIdBihERETkOwxQiIiIyHcYoBAREZHvMEAhIiIi32GAQkRERL7DAIWIiIh8hwEKERER+Q4DFCIiIvIdBihERETkOwxQiIiIyHcYoBAREZHvMEAhIiIi32GAQkRERL7DAIWIiIh858S33y7+2vRnjG+c/jnefKvWDKX2xadT+PfTP5khIiIi8oOMDFCyv/8H05eerU/eN32UWAt67gZRbIawNY2+thuYk/6667h5FbhlD7+SerQPdaA22wwK93ftUWXnHXTlTiDUPWzG7JZZr0g44TKaesNoRuJpfqG3QXWWGYranBnAtf5JM0SvJDSAkUZg9HIHxswoOkL071dk9a8lOZ6TzuM+R25javAKBh9Kv/ec5hxvct5sr0GONdqxMh5Ez4gZoONbxZOdddL0UXpW1Yk3iJDqRiM1aO2sN+P3mxzc1vdI17dciq67A2gyU/dirv/KPgQP29gMVMSvhzrRNATUNDPoV3ob6G0axorrt2Rwsl/UheiCuXDR0SMBgw4u5bgYwFRABQohM82hgpDGAnN+cs8jQUgQeSr40MfY+Dpqr15HpUyqU+fJB9axJp9ZLOmwPvPwBq6ZY1B3g9PYVIWxewxOPI5dgHLiBNDd+g7++GEFAt9604yl3RhbWEVO7uGcjOXC2jdTgIYDC4jStxGJX4/Kc6XYWF4yQ3RshYIoW55WwR8dRXIcYyZsMl+TGHywiuLyFj3kqDuDvK0lfKQzI5P4aHkbeafkfFCE/OxVTNjB/kgYUyjF+TrVrwKRQSfomMTTiOmN0XSxBhsP9iMLnVkyOkDJ/qY3SyLBya/fewfBnxTg5Bsn8IbqaLekpKhKEfcTV3W4Sx3eYSllhDFy1+riSyfJzT1SAUBJvVUiSbIcqcK42dkSnTZkSjDONCuwsNZJ0rHRz8t0a3l30C4nlSSeL7jXQ7TgUvU6Zp8FvKlaSQOb5XuWKaU0tV5N9vfpdYyuy0hvzAnxkMg2cdY3brtFt6nehq7/zfkN0/y/9HZ2/4/yuVfMjvmDlKyhLlBPzDAdNWdzs7DxzJVNfBzBZuCM61hXHj7BRrYJPNR56HwJsPhIqmtU4KJncMtC/lnT66jH6cA2nj82g44WVAWYPUkkYwOUd3+Qgz8P1qCu6i09LAHJb3/xHfzsxwVY++dLtP7mY2x8+rmeRukoQrO+4EhbjAlTv5ouCSragNt2SjMMNO7lwpR6OTnVDWbagCrB1OBSkiCouLECsyatmtcYRiuG9PL6ZoDaiymChMc3MBFxLTdUgTyn1GU47RDMOg4uoazd9b9m16DBfJ9UlXXdNesiVS+FDSkDpIPgtJ8x66ur1FxBRHSbhrFR3YGR8nlr3nFVwrwQDWbS+b/m+idUf7SazFtqPbqaeoPAONudZL5h9Ojj2ToP5j8w7UweTmJxqwhVTsBejzJ3OzqjsrMt4bmzsrMBecuTzJ4kkLEBiuRGTp48gd93fg8XfvgWfver7+KntXn4+z9e4j0VnEQ++8KakdIUbbcQWqjwlLR3JinQLNTqA1s6aUxWgNO7uRhHnqgDOPVyNmeGzMHvTr/GW7EvJlIiUv+XnZqde7au/6Yi1VtW6tfKJOkSlEvlqYLo8sVDFdSsuU5eW9O4Zb7v8Ytttc72BXoVz7d0zyGSEp36XV3tc2KDiOg2lfXbjmbOpIRp9VnS+r+GMetsC1cJ9AiTrFDDiwE2bDwOpPAhNwSY8+BsuckqSpXQbauwo89Lap7FNXemxMr66oJQXFs4OQ7Wo9VD5JGxAcpfPt7EL3uX8OVXX6O/qxQ/ejeAvz7eRmvPPDa3/mvmoj0ZmcdKdgBxGcyUXAGO7uxW7juT+lm8WDVDe1/OvpD65UAD2kOqlLTrTBKN3VcncgnwpJR55LefVPFlIUcyS07ALJnG1FWF5D8SVHsKNGcDyNGFoqim8iKsuNqJyL7sVPm6G722PUF+4Tqe6n07mvVN2CBdHwfzzL4lkdFtUGYWP9NByn8+/wqLf/sX3v9gAVvbX5qptGehChRvRRBblSoHebRhWQuqCk2vLkUX7amhq66CCNil870vZ/9IdgaobazBxkJ8OxzJwhS7q6/kLp/CVcz6soQtjfbUBdVVpSPp5uK1AzxhSjo8UIF2aVycYPsdLcPo8QTL9h1Shxw00yvT7dyqg+a4leyoCkb0/ikBhhVw6vObq1pTqihjgxghVX5O1a9uPG1nIePpak6n8EWxMjpAERKk/M8Hn6D9wwVsv2TmZO/sNiiqkzYWCZ5NYlUPBE1psgJYMxMkBdpm2jDYy0haReSuwjHtI5zv2s1yDo7+P5PdEjjSoe86crZVeykWB/3bPmGs27pd0t6eXSVL6HvlW7JTkQCvALXqe9gokHzj4Q3cco7bDhVUxFfbyR2FVvuq+GPF3dBcqvzsbIlU+UYzbKZzFQjiGueSBx/UpvBBbUSHR9ptSH08n8FCRKlkZAZFHl+frt3MS0SvStptHP3GsUR08DIyg0JE/iOZE3ncPh/nTUTpYIBCREREvpPxjWSJiIjo6GGAQkRERL7DAIWIiIh8hwEKERER+Q4DFCIiIvIdBihERETkOwxQiIiIyHcYoFCaoi/NoqNJ3hfSEzIDHi3ocd7AK/3elx3e1O8QUeN0v2saEdEBYoBCdOzJW3kTv4G36WINNsblTb0dGNOvlPfviw+JKLMwQCEiIiLf4aPuKU1SxdMG3DYlbUn3t9cgR09bxagpWdvvW7F4x7diAoslQdRmqxFb0+hru4E5M835zFoYoQN93f/xJVU8VQthoDGIYhnhbGup1qnArP6tov1Q8zcXyoyKzHv/DG5eBW7p3032hw7rt8Q2pmbWUZs7H/3tQgMYaSyy+p3f2lr285kC1FYDU4OJszZERIIZFNo9CU7kQnVZUv+qGweae1v0pLn+K9Y41fWpC1FDZ70eL3KqG1SAI9MGMIUaXNLtIeTttusqkDHLYnByoIobJfiQbR3GSmFDyjZFY91BjK5Bv9wv9ndp6lXBSUQFLXpZQ0CJCUaEBCflKlgxv2nfcilanf2gCGUYUuMZnBBRagxQaPfOBpCTXYMu3XhSdVJSDpxBpZ4opWRrvGRFcnKjF67NmSFzUZrER8vbyDslF61VPN8qQvPQdfN5Okgr43YbkmHMrmUh/6we2KV6nA5sY+q+HbRMYvDBqukHKk8VAIVBa9+I2w9WMdE/afqJiJJjgEK7sI6ndqlXUv6mhKw7J4XfgOeDZtx49KKVnLq4tal5bwOtckEzmRjysyLkZ7v2hQQ2Zwa8+wczY0S0SwxQKD119ShDBI+l/3EEm4mqB+rOIM8VxDSVu9L+O9F3iEi1QwVvY/U9yb4Uuarv6tF+Ifpbzz1bR051kL8jEb0SBii0A1Nl016KxdtWo1YdTIyvo7bdSuFLd1MuVmr8hLpwNZtxVUgngxKtEhq5GwScKgjys7HuMDaqO8zv1gYsu37rkQ7d/sjeD6RL/PwVIqLkeBcPEb0y6y6tIVxj+xIi2ifMoBDRK5I7sYDFRwxOiGj/MINCRLvmfd6NdStyz4gZICLaBwxQiIiIyHdYxUNERES+wwCFiIiIfIcBChEREfkOAxQiIiLyHQYoRERE5DsMUIiIiMh3GKAQERGR7zBAISIiIp8B/n8FjzKZKCSyiAAAAABJRU5ErkJggg==;" vertex="1" parent="1">
          <mxGeometry x="847.58" y="80" width="146.92" height="140" as="geometry" />
        </mxCell>
      </root>
    </mxGraphModel>
  </diagram>
  <diagram id="98Rhk4HZ_UeDQRFNqHua" name="Page-2">
    <mxGraphModel grid="1" page="1" gridSize="10" guides="1" tooltips="1" connect="1" arrows="1" fold="1" pageScale="1" pageWidth="850" pageHeight="1100" math="0" shadow="0">
      <root>
        <mxCell id="0" />
        <mxCell id="1" parent="0" />
      </root>
    </mxGraphModel>
  </diagram>
</mxfile>
